<svg width="1300" height="600" viewBox="0 0 1300 600" fill="none" xmlns="http://www.w3.org/2000/svg">
<rect width="1300" height="600" fill="white"/>
<path d="M193.258 150.86V152.24H209.638V150.86H193.258ZM200.618 146.48V151.32H202.258V146.48H200.618ZM200.578 138.76V139.88C200.578 142.74 197.158 145.28 194.038 145.8L194.718 147.12C198.278 146.38 201.978 143.58 201.978 139.88V138.76H200.578ZM200.878 138.76V139.88C200.878 143.58 204.598 146.34 208.218 147.06L208.878 145.74C205.718 145.22 202.278 142.74 202.278 139.88V138.76H200.878ZM194.598 138.12V139.48H208.258V138.12H194.598ZM214.974 146.636L215.088 143.511L212.446 145.188L211.764 143.994L214.548 142.545L211.764 141.097L212.446 139.903L215.088 141.58L214.974 138.455H216.338L216.224 141.58L218.866 139.903L219.548 141.097L216.764 142.545L219.548 143.994L218.866 145.188L216.224 143.511L216.338 146.636H214.974ZM224.974 146.636L225.088 143.511L222.446 145.188L221.764 143.994L224.548 142.545L221.764 141.097L222.446 139.903L225.088 141.58L224.974 138.455H226.338L226.224 141.58L228.866 139.903L229.548 141.097L226.764 142.545L229.548 143.994L228.866 145.188L226.224 143.511L226.338 146.636H224.974ZM232.787 146.864C232.787 145.074 233.019 143.429 233.483 141.928C233.952 140.422 234.619 139.037 235.486 137.773H236.963C236.622 138.241 236.303 138.819 236.004 139.506C235.711 140.187 235.453 140.938 235.23 141.757C235.008 142.571 234.832 143.414 234.705 144.286C234.581 145.157 234.52 146.016 234.52 146.864C234.52 147.991 234.629 149.134 234.847 150.294C235.064 151.454 235.358 152.531 235.727 153.526C236.097 154.52 236.509 155.33 236.963 155.955H235.486C234.619 154.69 233.952 153.308 233.483 151.807C233.019 150.301 232.787 148.653 232.787 146.864ZM251.262 136.42V146.4H252.922V136.42H251.262ZM252.222 140.76V142.16H255.602V140.76H252.222ZM241.442 147.32V148.58H251.302V150.16H241.482V153.56H243.122V151.36H252.922V147.32H241.442ZM241.482 153.08V154.36H253.582V153.08H241.482ZM238.942 138.1V139.4H249.622V138.1H238.942ZM244.282 140.2C241.642 140.2 239.942 141.34 239.942 143.18C239.942 145 241.642 146.12 244.282 146.12C246.882 146.12 248.602 145 248.602 143.18C248.602 141.34 246.882 140.2 244.282 140.2ZM244.282 141.42C245.942 141.42 247.022 142.1 247.022 143.18C247.022 144.24 245.942 144.92 244.282 144.92C242.602 144.92 241.522 144.24 241.522 143.18C241.522 142.1 242.602 141.42 244.282 141.42ZM243.442 136.28V139H245.102V136.28H243.442ZM262.101 137.86C259.441 137.86 257.561 140.32 257.561 144.16C257.561 148.02 259.441 150.48 262.101 150.48C264.761 150.48 266.641 148.02 266.641 144.16C266.641 140.32 264.761 137.86 262.101 137.86ZM262.101 139.36C263.841 139.36 265.061 141.24 265.061 144.16C265.061 147.1 263.841 149.02 262.101 149.02C260.341 149.02 259.141 147.1 259.141 144.16C259.141 141.24 260.341 139.36 262.101 139.36ZM269.521 136.48V154.56H271.201V136.48H269.521ZM270.801 143.7V145.1H274.161V143.7H270.801ZM288.939 136.46V154.58H290.579V136.46H288.939ZM284.159 143.18V144.54H289.419V143.18H284.159ZM276.419 137.9V150.04H284.719V137.9H283.079V142.6H278.059V137.9H276.419ZM278.059 143.92H283.079V148.66H278.059V143.92ZM298.878 139.06V142C298.878 145.12 296.698 148.52 294.078 149.76L295.038 151.08C297.918 149.66 300.218 145.82 300.218 142V139.06H298.878ZM299.198 139.06V142C299.198 145.76 301.518 149.28 304.438 150.64L305.378 149.32C302.718 148.18 300.538 145.06 300.538 142V139.06H299.198ZM294.678 138.32V139.72H304.778V138.32H294.678ZM307.218 136.48V154.56H308.878V136.48H307.218ZM316.61 146.864C316.61 148.653 316.375 150.301 315.907 151.807C315.443 153.308 314.777 154.69 313.911 155.955H312.434C312.775 155.486 313.092 154.908 313.385 154.222C313.684 153.54 313.944 152.792 314.167 151.977C314.389 151.158 314.562 150.313 314.685 149.442C314.813 148.566 314.877 147.706 314.877 146.864C314.877 145.737 314.768 144.593 314.55 143.433C314.332 142.273 314.039 141.196 313.669 140.202C313.3 139.207 312.888 138.398 312.434 137.773H313.911C314.777 139.037 315.443 140.422 315.907 141.928C316.375 143.429 316.61 145.074 316.61 146.864Z" fill="black"/>
<path d="M220.156 272.86V274.24H236.536V272.86H220.156ZM227.516 268.48V273.32H229.156V268.48H227.516ZM227.476 260.76V261.88C227.476 264.74 224.056 267.28 220.936 267.8L221.616 269.12C225.176 268.38 228.876 265.58 228.876 261.88V260.76H227.476ZM227.776 260.76V261.88C227.776 265.58 231.496 268.34 235.116 269.06L235.776 267.74C232.616 267.22 229.176 264.74 229.176 261.88V260.76H227.776ZM221.496 260.12V261.48H235.156V260.12H221.496ZM241.873 268.636L241.987 265.511L239.344 267.188L238.663 265.994L241.447 264.545L238.663 263.097L239.344 261.903L241.987 263.58L241.873 260.455H243.237L243.123 263.58L245.765 261.903L246.447 263.097L243.663 264.545L246.447 265.994L245.765 267.188L243.123 265.511L243.237 268.636H241.873ZM251.873 268.636L251.987 265.511L249.344 267.188L248.663 265.994L251.447 264.545L248.663 263.097L249.344 261.903L251.987 263.58L251.873 260.455H253.237L253.123 263.58L255.765 261.903L256.447 263.097L253.663 264.545L256.447 265.994L255.765 267.188L253.123 265.511L253.237 268.636H251.873ZM259.685 268.864C259.685 267.074 259.917 265.429 260.381 263.928C260.85 262.422 261.518 261.037 262.384 259.773H263.862C263.521 260.241 263.201 260.819 262.903 261.506C262.609 262.187 262.351 262.938 262.129 263.757C261.906 264.571 261.731 265.414 261.603 266.286C261.48 267.157 261.418 268.016 261.418 268.864C261.418 269.991 261.527 271.134 261.745 272.294C261.963 273.454 262.256 274.531 262.626 275.526C262.995 276.52 263.407 277.33 263.862 277.955H262.384C261.518 276.69 260.85 275.308 260.381 273.807C259.917 272.301 259.685 270.653 259.685 268.864ZM265.801 267.38V268.74H282.141V267.38H265.801ZM273.141 264.48V267.94H274.781V264.48H273.141ZM267.861 263.96V265.32H280.241V263.96H267.861ZM267.861 259.3V264.76H269.501V260.64H280.101V259.3H267.861ZM273.941 270.04C270.081 270.04 267.741 271.22 267.741 273.28C267.741 275.38 270.081 276.54 273.941 276.54C277.801 276.54 280.141 275.38 280.141 273.28C280.141 271.22 277.801 270.04 273.941 270.04ZM273.941 271.32C276.781 271.32 278.461 272.04 278.461 273.28C278.461 274.54 276.781 275.24 273.941 275.24C271.121 275.24 269.421 274.54 269.421 273.28C269.421 272.04 271.121 271.32 273.941 271.32ZM287.979 259.6V262.02C287.979 264.06 286.559 266.4 284.179 267.44L285.079 268.74C287.739 267.56 289.299 264.72 289.299 262.02V259.6H287.979ZM288.239 259.6V262.02C288.239 264.68 289.739 267.18 292.339 268.22L293.239 266.96C290.919 266.06 289.559 264.02 289.559 262.02V259.6H288.239ZM297.839 258.5V269.64H299.419V258.5H297.839ZM294.959 263.32V264.68H298.379V263.32H294.959ZM293.959 258.84V269.06H295.539V258.84H293.959ZM293.479 270.04C289.739 270.04 287.459 271.24 287.459 273.3C287.459 275.34 289.739 276.52 293.479 276.52C297.199 276.52 299.519 275.34 299.519 273.3C299.519 271.24 297.199 270.04 293.479 270.04ZM293.479 271.34C296.199 271.34 297.859 272.06 297.859 273.3C297.859 274.52 296.199 275.24 293.479 275.24C290.759 275.24 289.079 274.52 289.079 273.3C289.079 272.06 290.759 271.34 293.479 271.34ZM306.711 268.864C306.711 270.653 306.477 272.301 306.008 273.807C305.544 275.308 304.879 276.69 304.012 277.955H302.535C302.876 277.486 303.193 276.908 303.487 276.222C303.785 275.54 304.046 274.792 304.268 273.977C304.491 273.158 304.663 272.313 304.787 271.442C304.914 270.566 304.978 269.706 304.978 268.864C304.978 267.737 304.869 266.593 304.652 265.433C304.434 264.273 304.14 263.196 303.771 262.202C303.402 261.207 302.99 260.398 302.535 259.773H304.012C304.879 261.037 305.544 262.422 306.008 263.928C306.477 265.429 306.711 267.074 306.711 268.864Z" fill="black"/>
<path d="M527.457 272.86V274.24H543.837V272.86H527.457ZM534.817 268.48V273.32H536.457V268.48H534.817ZM534.777 260.76V261.88C534.777 264.74 531.357 267.28 528.237 267.8L528.917 269.12C532.477 268.38 536.177 265.58 536.177 261.88V260.76H534.777ZM535.077 260.76V261.88C535.077 265.58 538.797 268.34 542.417 269.06L543.077 267.74C539.917 267.22 536.477 264.74 536.477 261.88V260.76H535.077ZM528.797 260.12V261.48H542.457V260.12H528.797ZM549.174 268.636L549.287 265.511L546.645 267.188L545.963 265.994L548.748 264.545L545.963 263.097L546.645 261.903L549.287 263.58L549.174 260.455H550.537L550.424 263.58L553.066 261.903L553.748 263.097L550.963 264.545L553.748 265.994L553.066 267.188L550.424 265.511L550.537 268.636H549.174ZM559.174 268.636L559.287 265.511L556.645 267.188L555.963 265.994L558.748 264.545L555.963 263.097L556.645 261.903L559.287 263.58L559.174 260.455H560.537L560.424 263.58L563.066 261.903L563.748 263.097L560.963 264.545L563.748 265.994L563.066 267.188L560.424 265.511L560.537 268.636H559.174ZM566.986 268.864C566.986 267.074 567.218 265.429 567.682 263.928C568.151 262.422 568.819 261.037 569.685 259.773H571.162C570.821 260.241 570.502 260.819 570.203 261.506C569.91 262.187 569.652 262.938 569.429 263.757C569.207 264.571 569.032 265.414 568.904 266.286C568.781 267.157 568.719 268.016 568.719 268.864C568.719 269.991 568.828 271.134 569.046 272.294C569.264 273.454 569.557 274.531 569.926 275.526C570.296 276.52 570.708 277.33 571.162 277.955H569.685C568.819 276.69 568.151 275.308 567.682 273.807C567.218 272.301 566.986 270.653 566.986 268.864ZM581.242 262.5V263.88H586.702V262.5H581.242ZM581.242 268.22V269.6H586.702V268.22H581.242ZM577.922 259.86C575.282 259.86 573.422 262.32 573.422 266.16C573.422 270.02 575.282 272.48 577.922 272.48C580.542 272.48 582.422 270.02 582.422 266.16C582.422 262.32 580.542 259.86 577.922 259.86ZM577.922 261.36C579.662 261.36 580.862 263.24 580.862 266.16C580.862 269.1 579.662 271.02 577.922 271.02C576.182 271.02 574.982 269.1 574.982 266.16C574.982 263.24 576.182 261.36 577.922 261.36ZM586.342 258.46V276.58H587.982V258.46H586.342ZM591.5 267.38V268.74H607.84V267.38H591.5ZM598.84 264.48V267.94H600.48V264.48H598.84ZM593.56 263.96V265.32H605.94V263.96H593.56ZM593.56 259.3V264.76H595.2V260.64H605.8V259.3H593.56ZM599.64 270.04C595.78 270.04 593.44 271.22 593.44 273.28C593.44 275.38 595.78 276.54 599.64 276.54C603.5 276.54 605.84 275.38 605.84 273.28C605.84 271.22 603.5 270.04 599.64 270.04ZM599.64 271.32C602.48 271.32 604.16 272.04 604.16 273.28C604.16 274.54 602.48 275.24 599.64 275.24C596.82 275.24 595.12 274.54 595.12 273.28C595.12 272.04 596.82 271.32 599.64 271.32ZM613.678 259.6V262.02C613.678 264.06 612.258 266.4 609.878 267.44L610.778 268.74C613.438 267.56 614.998 264.72 614.998 262.02V259.6H613.678ZM613.938 259.6V262.02C613.938 264.68 615.438 267.18 618.038 268.22L618.938 266.96C616.618 266.06 615.258 264.02 615.258 262.02V259.6H613.938ZM623.538 258.5V269.64H625.118V258.5H623.538ZM620.658 263.32V264.68H624.078V263.32H620.658ZM619.658 258.84V269.06H621.238V258.84H619.658ZM619.178 270.04C615.438 270.04 613.158 271.24 613.158 273.3C613.158 275.34 615.438 276.52 619.178 276.52C622.898 276.52 625.218 275.34 625.218 273.3C625.218 271.24 622.898 270.04 619.178 270.04ZM619.178 271.34C621.898 271.34 623.558 272.06 623.558 273.3C623.558 274.52 621.898 275.24 619.178 275.24C616.458 275.24 614.778 274.52 614.778 273.3C614.778 272.06 616.458 271.34 619.178 271.34ZM632.411 268.864C632.411 270.653 632.176 272.301 631.707 273.807C631.243 275.308 630.578 276.69 629.712 277.955H628.234C628.575 277.486 628.893 276.908 629.186 276.222C629.484 275.54 629.745 274.792 629.967 273.977C630.19 273.158 630.363 272.313 630.486 271.442C630.614 270.566 630.678 269.706 630.678 268.864C630.678 267.737 630.569 266.593 630.351 265.433C630.133 264.273 629.839 263.196 629.47 262.202C629.101 261.207 628.689 260.398 628.234 259.773H629.712C630.578 261.037 631.243 262.422 631.707 263.928C632.176 265.429 632.411 267.074 632.411 268.864Z" fill="black"/>
<path d="M63.125 272.86V274.24H79.505V272.86H63.125ZM70.485 268.48V273.32H72.125V268.48H70.485ZM70.445 260.76V261.88C70.445 264.74 67.025 267.28 63.905 267.8L64.585 269.12C68.145 268.38 71.845 265.58 71.845 261.88V260.76H70.445ZM70.745 260.76V261.88C70.745 265.58 74.465 268.34 78.085 269.06L78.745 267.74C75.585 267.22 72.145 264.74 72.145 261.88V260.76H70.745ZM64.465 260.12V261.48H78.125V260.12H64.465ZM90.4382 278.835C88.9893 278.835 87.7086 278.636 86.5959 278.239C85.4832 277.846 84.5481 277.266 83.7905 276.499C83.0329 275.732 82.46 274.792 82.0717 273.679C81.6835 272.566 81.4893 271.293 81.4893 269.858C81.4893 268.471 81.6858 267.23 82.0788 266.136C82.4766 265.043 83.0518 264.115 83.8047 263.352C84.5623 262.585 85.4808 262 86.5604 261.598C87.6446 261.196 88.871 260.994 90.2393 260.994C91.5698 260.994 92.7346 261.212 93.7337 261.648C94.7375 262.079 95.5755 262.663 96.2479 263.402C96.925 264.136 97.4316 264.962 97.7678 265.881C98.1087 266.799 98.2791 267.746 98.2791 268.722C98.2791 269.408 98.246 270.104 98.1797 270.81C98.1134 271.515 97.9737 272.164 97.7607 272.756C97.5476 273.343 97.2185 273.816 96.7734 274.176C96.3331 274.536 95.7365 274.716 94.9837 274.716C94.6522 274.716 94.2876 274.664 93.8899 274.56C93.4922 274.455 93.1394 274.283 92.8317 274.041C92.5239 273.8 92.3416 273.475 92.2848 273.068H92.1996C92.0859 273.343 91.9107 273.603 91.674 273.849C91.442 274.096 91.1366 274.292 90.7578 274.439C90.3838 274.586 89.9268 274.65 89.3871 274.631C88.7715 274.607 88.2294 274.47 87.7607 274.219C87.2919 273.963 86.8989 273.617 86.5817 273.182C86.2692 272.741 86.0324 272.232 85.8714 271.655C85.7152 271.072 85.6371 270.445 85.6371 269.773C85.6371 269.134 85.7318 268.549 85.9212 268.018C86.1106 267.488 86.3733 267.024 86.7095 266.626C87.0504 266.229 87.4482 265.911 87.9027 265.675C88.362 265.433 88.8568 265.284 89.3871 265.227C89.8606 265.18 90.2914 265.201 90.6797 265.291C91.0679 265.376 91.3875 265.507 91.6385 265.682C91.8894 265.852 92.0481 266.042 92.1143 266.25H92.1996V265.455H93.7053V271.875C93.7053 272.273 93.8165 272.623 94.0391 272.926C94.2616 273.229 94.5859 273.381 95.0121 273.381C95.495 273.381 95.8643 273.215 96.12 272.884C96.3804 272.552 96.558 272.041 96.6527 271.349C96.7521 270.658 96.8018 269.773 96.8018 268.693C96.8018 268.059 96.7143 267.434 96.5391 266.818C96.3686 266.198 96.1082 265.618 95.7578 265.078C95.4122 264.538 94.9742 264.062 94.4439 263.651C93.9136 263.239 93.291 262.917 92.576 262.685C91.8658 262.448 91.0585 262.33 90.1541 262.33C89.0414 262.33 88.0447 262.502 87.1641 262.848C86.2881 263.189 85.5424 263.688 84.9268 264.347C84.3161 265 83.8497 265.795 83.5277 266.733C83.2105 267.666 83.0518 268.726 83.0518 269.915C83.0518 271.122 83.2105 272.195 83.5277 273.132C83.8497 274.07 84.3232 274.86 84.9482 275.504C85.5779 276.148 86.3568 276.636 87.2848 276.967C88.2128 277.304 89.2829 277.472 90.495 277.472C91.0159 277.472 91.5296 277.422 92.0362 277.322C92.5429 277.223 92.9903 277.114 93.3786 276.996C93.7668 276.877 94.0462 276.79 94.2166 276.733L94.6143 278.04C94.3208 278.163 93.9373 278.286 93.4638 278.409C92.995 278.532 92.4931 278.634 91.9581 278.714C91.4278 278.795 90.9212 278.835 90.4382 278.835ZM89.6143 273.182C90.2488 273.182 90.7625 273.054 91.1555 272.798C91.5485 272.543 91.835 272.157 92.0149 271.641C92.1948 271.125 92.2848 270.473 92.2848 269.688C92.2848 268.892 92.1854 268.272 91.9865 267.827C91.7876 267.382 91.4941 267.069 91.1058 266.889C90.7176 266.709 90.2393 266.619 89.6712 266.619C89.1314 266.619 88.6697 266.761 88.2862 267.045C87.9074 267.325 87.6162 267.699 87.4126 268.168C87.2138 268.632 87.1143 269.138 87.1143 269.688C87.1143 270.294 87.1948 270.864 87.3558 271.399C87.5168 271.929 87.7796 272.36 88.1442 272.692C88.5088 273.018 88.9988 273.182 89.6143 273.182ZM109.169 278.835C107.72 278.835 106.439 278.636 105.326 278.239C104.214 277.846 103.279 277.266 102.521 276.499C101.763 275.732 101.19 274.792 100.802 273.679C100.414 272.566 100.22 271.293 100.22 269.858C100.22 268.471 100.416 267.23 100.809 266.136C101.207 265.043 101.782 264.115 102.535 263.352C103.293 262.585 104.211 262 105.291 261.598C106.375 261.196 107.601 260.994 108.97 260.994C110.3 260.994 111.465 261.212 112.464 261.648C113.468 262.079 114.306 262.663 114.978 263.402C115.655 264.136 116.162 264.962 116.498 265.881C116.839 266.799 117.01 267.746 117.01 268.722C117.01 269.408 116.976 270.104 116.91 270.81C116.844 271.515 116.704 272.164 116.491 272.756C116.278 273.343 115.949 273.816 115.504 274.176C115.064 274.536 114.467 274.716 113.714 274.716C113.383 274.716 113.018 274.664 112.62 274.56C112.223 274.455 111.87 274.283 111.562 274.041C111.254 273.8 111.072 273.475 111.015 273.068H110.93C110.816 273.343 110.641 273.603 110.404 273.849C110.172 274.096 109.867 274.292 109.488 274.439C109.114 274.586 108.657 274.65 108.118 274.631C107.502 274.607 106.96 274.47 106.491 274.219C106.022 273.963 105.629 273.617 105.312 273.182C105 272.741 104.763 272.232 104.602 271.655C104.446 271.072 104.368 270.445 104.368 269.773C104.368 269.134 104.462 268.549 104.652 268.018C104.841 267.488 105.104 267.024 105.44 266.626C105.781 266.229 106.179 265.911 106.633 265.675C107.092 265.433 107.587 265.284 108.118 265.227C108.591 265.18 109.022 265.201 109.41 265.291C109.798 265.376 110.118 265.507 110.369 265.682C110.62 265.852 110.779 266.042 110.845 266.25H110.93V265.455H112.436V271.875C112.436 272.273 112.547 272.623 112.77 272.926C112.992 273.229 113.316 273.381 113.743 273.381C114.225 273.381 114.595 273.215 114.85 272.884C115.111 272.552 115.288 272.041 115.383 271.349C115.483 270.658 115.532 269.773 115.532 268.693C115.532 268.059 115.445 267.434 115.27 266.818C115.099 266.198 114.839 265.618 114.488 265.078C114.143 264.538 113.705 264.062 113.174 263.651C112.644 263.239 112.021 262.917 111.306 262.685C110.596 262.448 109.789 262.33 108.885 262.33C107.772 262.33 106.775 262.502 105.895 262.848C105.019 263.189 104.273 263.688 103.657 264.347C103.047 265 102.58 265.795 102.258 266.733C101.941 267.666 101.782 268.726 101.782 269.915C101.782 271.122 101.941 272.195 102.258 273.132C102.58 274.07 103.054 274.86 103.679 275.504C104.308 276.148 105.087 276.636 106.015 276.967C106.943 277.304 108.013 277.472 109.225 277.472C109.746 277.472 110.26 277.422 110.767 277.322C111.273 277.223 111.721 277.114 112.109 276.996C112.497 276.877 112.777 276.79 112.947 276.733L113.345 278.04C113.051 278.163 112.668 278.286 112.194 278.409C111.725 278.532 111.224 278.634 110.689 278.714C110.158 278.795 109.652 278.835 109.169 278.835ZM108.345 273.182C108.979 273.182 109.493 273.054 109.886 272.798C110.279 272.543 110.565 272.157 110.745 271.641C110.925 271.125 111.015 270.473 111.015 269.688C111.015 268.892 110.916 268.272 110.717 267.827C110.518 267.382 110.225 267.069 109.836 266.889C109.448 266.709 108.97 266.619 108.402 266.619C107.862 266.619 107.4 266.761 107.017 267.045C106.638 267.325 106.347 267.699 106.143 268.168C105.944 268.632 105.845 269.138 105.845 269.688C105.845 270.294 105.925 270.864 106.086 271.399C106.247 271.929 106.51 272.36 106.875 272.692C107.239 273.018 107.729 273.182 108.345 273.182ZM120.115 268.864C120.115 267.074 120.347 265.429 120.811 263.928C121.28 262.422 121.947 261.037 122.814 259.773H124.291C123.95 260.241 123.631 260.819 123.332 261.506C123.039 262.187 122.781 262.938 122.558 263.757C122.336 264.571 122.161 265.414 122.033 266.286C121.91 267.157 121.848 268.016 121.848 268.864C121.848 269.991 121.957 271.134 122.175 272.294C122.393 273.454 122.686 274.531 123.055 275.526C123.425 276.52 123.837 277.33 124.291 277.955H122.814C121.947 276.69 121.28 275.308 120.811 273.807C120.347 272.301 120.115 270.653 120.115 268.864ZM139.67 265.68V267.08H143.01V265.68H139.67ZM138.45 258.46V276.56H140.13V258.46H138.45ZM126.93 260.24V271.44H128.59V260.24H126.93ZM126.93 270.58V271.98H128.37C131.11 271.98 133.89 271.8 136.97 271.16L136.77 269.78C133.79 270.4 131.05 270.58 128.37 270.58H126.93ZM148.743 268.864C148.743 270.653 148.508 272.301 148.039 273.807C147.575 275.308 146.91 276.69 146.044 277.955H144.566C144.907 277.486 145.225 276.908 145.518 276.222C145.816 275.54 146.077 274.792 146.299 273.977C146.522 273.158 146.695 272.313 146.818 271.442C146.946 270.566 147.01 269.706 147.01 268.864C147.01 267.737 146.901 266.593 146.683 265.433C146.465 264.273 146.172 263.196 145.802 262.202C145.433 261.207 145.021 260.398 144.566 259.773H146.044C146.91 261.037 147.575 262.422 148.039 263.928C148.508 265.429 148.743 267.074 148.743 268.864Z" fill="black"/>
<path d="M378.156 272.86V274.24H394.536V272.86H378.156ZM385.516 268.48V273.32H387.156V268.48H385.516ZM385.476 260.76V261.88C385.476 264.74 382.056 267.28 378.936 267.8L379.616 269.12C383.176 268.38 386.876 265.58 386.876 261.88V260.76H385.476ZM385.776 260.76V261.88C385.776 265.58 389.496 268.34 393.116 269.06L393.776 267.74C390.616 267.22 387.176 264.74 387.176 261.88V260.76H385.776ZM379.496 260.12V261.48H393.156V260.12H379.496ZM399.873 268.636L399.987 265.511L397.344 267.188L396.663 265.994L399.447 264.545L396.663 263.097L397.344 261.903L399.987 263.58L399.873 260.455H401.237L401.123 263.58L403.765 261.903L404.447 263.097L401.663 264.545L404.447 265.994L403.765 267.188L401.123 265.511L401.237 268.636H399.873ZM409.873 268.636L409.987 265.511L407.344 267.188L406.663 265.994L409.447 264.545L406.663 263.097L407.344 261.903L409.987 263.58L409.873 260.455H411.237L411.123 263.58L413.765 261.903L414.447 263.097L411.663 264.545L414.447 265.994L413.765 267.188L411.123 265.511L411.237 268.636H409.873ZM417.685 268.864C417.685 267.074 417.917 265.429 418.381 263.928C418.85 262.422 419.518 261.037 420.384 259.773H421.862C421.521 260.241 421.201 260.819 420.903 261.506C420.609 262.187 420.351 262.938 420.129 263.757C419.906 264.571 419.731 265.414 419.603 266.286C419.48 267.157 419.418 268.016 419.418 268.864C419.418 269.991 419.527 271.134 419.745 272.294C419.963 273.454 420.256 274.531 420.626 275.526C420.995 276.52 421.407 277.33 421.862 277.955H420.384C419.518 276.69 418.85 275.308 418.381 273.807C417.917 272.301 417.685 270.653 417.685 268.864ZM425.901 264.54V265.9H438.281V264.54H425.901ZM423.801 268.62V269.98H440.181V268.62H423.801ZM431.101 269.36V276.56H432.741V269.36H431.101ZM425.901 259.38V265.22H427.561V259.38H425.901ZM455.639 265.68V267.08H458.979V265.68H455.639ZM454.419 258.46V276.56H456.099V258.46H454.419ZM442.899 260.24V271.44H444.559V260.24H442.899ZM442.899 270.58V271.98H444.339C447.079 271.98 449.859 271.8 452.939 271.16L452.739 269.78C449.759 270.4 447.019 270.58 444.339 270.58H442.899ZM464.711 268.864C464.711 270.653 464.477 272.301 464.008 273.807C463.544 275.308 462.879 276.69 462.012 277.955H460.535C460.876 277.486 461.193 276.908 461.487 276.222C461.785 275.54 462.046 274.792 462.268 273.977C462.491 273.158 462.663 272.313 462.787 271.442C462.914 270.566 462.978 269.706 462.978 268.864C462.978 267.737 462.869 266.593 462.652 265.433C462.434 264.273 462.14 263.196 461.771 262.202C461.402 261.207 460.99 260.398 460.535 259.773H462.012C462.879 261.037 463.544 262.422 464.008 263.928C464.477 265.429 464.711 267.074 464.711 268.864Z" fill="black"/>
<path d="M385.177 137.64V138.38C385.177 141.72 382.357 144.34 377.657 145.58L378.297 146.9C383.617 145.48 386.917 142.24 386.917 137.64H385.177ZM378.597 137.64V138.98H386.137V137.64H378.597ZM390.597 136.48V146.68H392.277V136.48H390.597ZM380.577 147.56V154.32H392.277V147.56H380.577ZM390.637 148.9V152.96H382.217V148.9H390.637ZM399.174 146.636L399.287 143.511L396.645 145.188L395.963 143.994L398.748 142.545L395.963 141.097L396.645 139.903L399.287 141.58L399.174 138.455H400.537L400.424 141.58L403.066 139.903L403.748 141.097L400.963 142.545L403.748 143.994L403.066 145.188L400.424 143.511L400.537 146.636H399.174ZM409.174 146.636L409.287 143.511L406.645 145.188L405.963 143.994L408.748 142.545L405.963 141.097L406.645 139.903L409.287 141.58L409.174 138.455H410.537L410.424 141.58L413.066 139.903L413.748 141.097L410.963 142.545L413.748 143.994L413.066 145.188L410.424 143.511L410.537 146.636H409.174ZM416.986 146.864C416.986 145.074 417.218 143.429 417.682 141.928C418.151 140.422 418.819 139.037 419.685 137.773H421.162C420.821 138.241 420.502 138.819 420.203 139.506C419.91 140.187 419.652 140.938 419.429 141.757C419.207 142.571 419.032 143.414 418.904 144.286C418.781 145.157 418.719 146.016 418.719 146.864C418.719 147.991 418.828 149.134 419.046 150.294C419.264 151.454 419.557 152.531 419.926 153.526C420.296 154.52 420.708 155.33 421.162 155.955H419.685C418.819 154.69 418.151 153.308 417.682 151.807C417.218 150.301 416.986 148.653 416.986 146.864ZM435.462 136.42V146.4H437.122V136.42H435.462ZM436.422 140.76V142.16H439.802V140.76H436.422ZM425.642 147.32V148.58H435.502V150.16H425.682V153.56H427.322V151.36H437.122V147.32H425.642ZM425.682 153.08V154.36H437.782V153.08H425.682ZM423.142 138.1V139.4H433.822V138.1H423.142ZM428.482 140.2C425.842 140.2 424.142 141.34 424.142 143.18C424.142 145 425.842 146.12 428.482 146.12C431.082 146.12 432.802 145 432.802 143.18C432.802 141.34 431.082 140.2 428.482 140.2ZM428.482 141.42C430.142 141.42 431.222 142.1 431.222 143.18C431.222 144.24 430.142 144.92 428.482 144.92C426.802 144.92 425.722 144.24 425.722 143.18C425.722 142.1 426.802 141.42 428.482 141.42ZM427.642 136.28V139H429.302V136.28H427.642ZM442.22 138.24V150H450.44V138.24H442.22ZM448.8 139.58V148.66H443.84V139.58H448.8ZM454.74 136.46V154.58H456.38V136.46H454.74ZM450.12 143.06V144.44H455.36V143.06H450.12ZM473.038 136.48V154.56H474.698V136.48H473.038ZM461.038 138.24V149.44H462.678V138.24H461.038ZM461.038 148.46V149.9H462.518C465.378 149.9 468.238 149.68 471.378 149.04L471.178 147.62C468.118 148.26 465.258 148.46 462.518 148.46H461.038ZM482.411 146.864C482.411 148.653 482.176 150.301 481.707 151.807C481.243 153.308 480.578 154.69 479.712 155.955H478.234C478.575 155.486 478.893 154.908 479.186 154.222C479.484 153.54 479.745 152.792 479.967 151.977C480.19 151.158 480.363 150.313 480.486 149.442C480.614 148.566 480.678 147.706 480.678 146.864C480.678 145.737 480.569 144.593 480.351 143.433C480.133 142.273 479.839 141.196 479.47 140.202C479.101 139.207 478.689 138.398 478.234 137.773H479.712C480.578 139.037 481.243 140.422 481.707 141.928C482.176 143.429 482.411 145.074 482.411 146.864Z" fill="black"/>
<path d="M428.5 167V188H342.5M256.5 167V188H342.5M342.5 188V229M342.5 229H256.5M342.5 229H420M103 247.5V229H256.5M256.5 229V247.5M575.5 247.5V229H420M420 229V247.5" stroke="#4A4A4A" stroke-width="2" stroke-linecap="round"/>
<path d="M924.162 202V187.455H925.923V193.932H933.679V187.455H935.44V202H933.679V195.494H925.923V202H924.162ZM943.483 191.091V192.511H937.83V191.091H943.483ZM939.478 188.477H941.154V198.875C941.154 199.348 941.223 199.704 941.36 199.94C941.502 200.172 941.682 200.329 941.9 200.409C942.122 200.485 942.357 200.523 942.603 200.523C942.787 200.523 942.939 200.513 943.057 200.494C943.176 200.471 943.27 200.452 943.341 200.438L943.682 201.943C943.569 201.986 943.41 202.028 943.206 202.071C943.003 202.118 942.745 202.142 942.432 202.142C941.959 202.142 941.495 202.04 941.04 201.837C940.59 201.633 940.216 201.323 939.918 200.906C939.625 200.49 939.478 199.964 939.478 199.33V188.477ZM946.005 202V191.091H947.624V192.795H947.766C947.993 192.213 948.36 191.761 948.867 191.439C949.374 191.112 949.982 190.949 950.692 190.949C951.412 190.949 952.011 191.112 952.489 191.439C952.972 191.761 953.349 192.213 953.618 192.795H953.732C954.011 192.232 954.43 191.785 954.989 191.453C955.548 191.117 956.218 190.949 956.999 190.949C957.974 190.949 958.772 191.254 959.393 191.865C960.013 192.471 960.323 193.416 960.323 194.699V202H958.647V194.699C958.647 193.894 958.427 193.319 957.986 192.973C957.546 192.627 957.028 192.455 956.431 192.455C955.664 192.455 955.07 192.687 954.648 193.151C954.227 193.61 954.016 194.192 954.016 194.898V202H952.312V194.528C952.312 193.908 952.11 193.409 951.708 193.03C951.305 192.646 950.787 192.455 950.153 192.455C949.717 192.455 949.31 192.571 948.931 192.803C948.557 193.035 948.254 193.357 948.022 193.768C947.795 194.176 947.681 194.647 947.681 195.182V202H946.005ZM965.064 187.455V202H963.388V187.455H965.064Z" fill="black"/>
<path d="M779.193 263V248.455H780.954V254.932H788.71V248.455H790.471V263H788.71V256.494H780.954V263H779.193ZM798.344 263.227C797.293 263.227 796.386 262.995 795.624 262.531C794.867 262.062 794.282 261.409 793.87 260.571C793.463 259.728 793.259 258.748 793.259 257.631C793.259 256.513 793.463 255.528 793.87 254.676C794.282 253.819 794.855 253.152 795.589 252.673C796.327 252.19 797.189 251.949 798.174 251.949C798.742 251.949 799.303 252.044 799.857 252.233C800.411 252.422 800.915 252.73 801.37 253.156C801.824 253.578 802.187 254.136 802.456 254.832C802.726 255.528 802.861 256.385 802.861 257.403V258.114H794.452V256.665H801.157C801.157 256.049 801.034 255.5 800.787 255.017C800.546 254.534 800.2 254.153 799.751 253.874C799.305 253.594 798.78 253.455 798.174 253.455C797.506 253.455 796.929 253.62 796.441 253.952C795.958 254.278 795.586 254.705 795.326 255.23C795.065 255.756 794.935 256.319 794.935 256.92V257.886C794.935 258.71 795.077 259.409 795.361 259.982C795.65 260.55 796.05 260.983 796.562 261.281C797.073 261.575 797.667 261.722 798.344 261.722C798.785 261.722 799.182 261.66 799.537 261.537C799.897 261.409 800.207 261.22 800.468 260.969C800.728 260.713 800.93 260.396 801.072 260.017L802.691 260.472C802.52 261.021 802.234 261.504 801.831 261.92C801.429 262.332 800.932 262.654 800.34 262.886C799.748 263.114 799.083 263.227 798.344 263.227ZM808.621 263.256C807.93 263.256 807.303 263.125 806.739 262.865C806.176 262.6 805.728 262.219 805.397 261.722C805.065 261.22 804.9 260.614 804.9 259.903C804.9 259.278 805.023 258.772 805.269 258.384C805.515 257.991 805.844 257.683 806.256 257.46C806.668 257.238 807.123 257.072 807.62 256.963C808.122 256.849 808.626 256.759 809.133 256.693C809.796 256.608 810.333 256.544 810.745 256.501C811.162 256.454 811.465 256.376 811.654 256.267C811.848 256.158 811.945 255.969 811.945 255.699V255.642C811.945 254.941 811.753 254.397 811.37 254.009C810.991 253.62 810.416 253.426 809.644 253.426C808.844 253.426 808.216 253.601 807.762 253.952C807.307 254.302 806.988 254.676 806.803 255.074L805.212 254.506C805.496 253.843 805.875 253.327 806.349 252.957C806.827 252.583 807.348 252.323 807.911 252.176C808.479 252.025 809.038 251.949 809.587 251.949C809.938 251.949 810.34 251.991 810.795 252.077C811.254 252.157 811.697 252.325 812.123 252.581C812.554 252.837 812.911 253.223 813.195 253.739C813.479 254.255 813.621 254.946 813.621 255.812V263H811.945V261.523H811.86C811.746 261.759 811.557 262.013 811.292 262.283C811.027 262.553 810.674 262.782 810.233 262.972C809.793 263.161 809.256 263.256 808.621 263.256ZM808.877 261.75C809.54 261.75 810.099 261.62 810.553 261.359C811.012 261.099 811.358 260.763 811.59 260.351C811.827 259.939 811.945 259.506 811.945 259.051V257.517C811.874 257.602 811.718 257.68 811.476 257.751C811.24 257.818 810.965 257.877 810.653 257.929C810.345 257.976 810.044 258.019 809.751 258.057C809.462 258.09 809.227 258.118 809.047 258.142C808.612 258.199 808.205 258.291 807.826 258.419C807.452 258.542 807.149 258.729 806.917 258.98C806.689 259.226 806.576 259.562 806.576 259.989C806.576 260.571 806.791 261.011 807.222 261.31C807.658 261.603 808.209 261.75 808.877 261.75ZM820.8 263.227C819.891 263.227 819.088 262.998 818.392 262.538C817.696 262.074 817.152 261.421 816.759 260.578C816.366 259.731 816.169 258.729 816.169 257.574C816.169 256.428 816.366 255.434 816.759 254.591C817.152 253.748 817.699 253.097 818.399 252.638C819.1 252.179 819.91 251.949 820.828 251.949C821.539 251.949 822.1 252.067 822.512 252.304C822.928 252.536 823.245 252.801 823.463 253.099C823.686 253.393 823.859 253.634 823.982 253.824H824.124V248.455H825.8V263H824.181V261.324H823.982C823.859 261.523 823.683 261.774 823.456 262.077C823.229 262.375 822.905 262.643 822.483 262.879C822.062 263.111 821.501 263.227 820.8 263.227ZM821.027 261.722C821.7 261.722 822.268 261.546 822.732 261.196C823.196 260.841 823.548 260.351 823.79 259.726C824.031 259.096 824.152 258.369 824.152 257.545C824.152 256.731 824.034 256.018 823.797 255.408C823.56 254.792 823.21 254.314 822.746 253.973C822.282 253.627 821.709 253.455 821.027 253.455C820.317 253.455 819.725 253.637 819.252 254.001C818.783 254.361 818.43 254.851 818.193 255.472C817.961 256.087 817.845 256.778 817.845 257.545C817.845 258.322 817.964 259.027 818.2 259.662C818.442 260.292 818.797 260.794 819.266 261.168C819.739 261.537 820.326 261.722 821.027 261.722Z" fill="black"/>
<path d="M1060.01 263V248.455H1065.1C1066.11 248.455 1066.95 248.63 1067.61 248.98C1068.26 249.326 1068.75 249.792 1069.08 250.379C1069.4 250.962 1069.56 251.608 1069.56 252.318C1069.56 252.943 1069.45 253.459 1069.22 253.866C1069.01 254.274 1068.72 254.596 1068.36 254.832C1068 255.069 1067.62 255.244 1067.2 255.358V255.5C1067.65 255.528 1068.09 255.685 1068.54 255.969C1068.99 256.253 1069.37 256.66 1069.67 257.19C1069.98 257.721 1070.13 258.369 1070.13 259.136C1070.13 259.866 1069.96 260.521 1069.63 261.104C1069.3 261.686 1068.78 262.148 1068.06 262.489C1067.35 262.83 1066.41 263 1065.27 263H1060.01ZM1061.77 261.438H1065.27C1066.42 261.438 1067.24 261.215 1067.72 260.77C1068.21 260.32 1068.45 259.776 1068.45 259.136C1068.45 258.644 1068.33 258.189 1068.07 257.773C1067.82 257.351 1067.47 257.015 1067 256.764C1066.54 256.509 1065.99 256.381 1065.35 256.381H1061.77V261.438ZM1061.77 254.847H1065.04C1065.57 254.847 1066.05 254.742 1066.48 254.534C1066.91 254.326 1067.25 254.032 1067.5 253.653C1067.75 253.275 1067.88 252.83 1067.88 252.318C1067.88 251.679 1067.66 251.137 1067.22 250.692C1066.77 250.242 1066.06 250.017 1065.1 250.017H1061.77V254.847ZM1077.23 263.227C1076.24 263.227 1075.38 262.993 1074.63 262.524C1073.89 262.055 1073.32 261.4 1072.9 260.557C1072.49 259.714 1072.28 258.729 1072.28 257.602C1072.28 256.466 1072.49 255.474 1072.9 254.626C1073.32 253.779 1073.89 253.121 1074.63 252.652C1075.38 252.183 1076.24 251.949 1077.23 251.949C1078.21 251.949 1079.07 252.183 1079.81 252.652C1080.55 253.121 1081.13 253.779 1081.54 254.626C1081.96 255.474 1082.17 256.466 1082.17 257.602C1082.17 258.729 1081.96 259.714 1081.54 260.557C1081.13 261.4 1080.55 262.055 1079.81 262.524C1079.07 262.993 1078.21 263.227 1077.23 263.227ZM1077.23 261.722C1077.97 261.722 1078.59 261.53 1079.07 261.146C1079.56 260.763 1079.91 260.259 1080.14 259.634C1080.38 259.009 1080.49 258.331 1080.49 257.602C1080.49 256.873 1080.38 256.194 1080.14 255.564C1079.91 254.934 1079.56 254.425 1079.07 254.037C1078.59 253.649 1077.97 253.455 1077.23 253.455C1076.48 253.455 1075.86 253.649 1075.38 254.037C1074.9 254.425 1074.54 254.934 1074.31 255.564C1074.07 256.194 1073.96 256.873 1073.96 257.602C1073.96 258.331 1074.07 259.009 1074.31 259.634C1074.54 260.259 1074.9 260.763 1075.38 261.146C1075.86 261.53 1076.48 261.722 1077.23 261.722ZM1088.85 263.227C1087.94 263.227 1087.14 262.998 1086.44 262.538C1085.74 262.074 1085.2 261.421 1084.81 260.578C1084.41 259.731 1084.22 258.729 1084.22 257.574C1084.22 256.428 1084.41 255.434 1084.81 254.591C1085.2 253.748 1085.75 253.097 1086.45 252.638C1087.15 252.179 1087.96 251.949 1088.88 251.949C1089.59 251.949 1090.15 252.067 1090.56 252.304C1090.98 252.536 1091.29 252.801 1091.51 253.099C1091.73 253.393 1091.91 253.634 1092.03 253.824H1092.17V248.455H1093.85V263H1092.23V261.324H1092.03C1091.91 261.523 1091.73 261.774 1091.5 262.077C1091.28 262.375 1090.95 262.643 1090.53 262.879C1090.11 263.111 1089.55 263.227 1088.85 263.227ZM1089.07 261.722C1089.75 261.722 1090.31 261.546 1090.78 261.196C1091.24 260.841 1091.6 260.351 1091.84 259.726C1092.08 259.096 1092.2 258.369 1092.2 257.545C1092.2 256.731 1092.08 256.018 1091.84 255.408C1091.61 254.792 1091.26 254.314 1090.79 253.973C1090.33 253.627 1089.76 253.455 1089.07 253.455C1088.36 253.455 1087.77 253.637 1087.3 254.001C1086.83 254.361 1086.48 254.851 1086.24 255.472C1086.01 256.087 1085.89 256.778 1085.89 257.545C1085.89 258.322 1086.01 259.027 1086.25 259.662C1086.49 260.292 1086.84 260.794 1087.31 261.168C1087.79 261.537 1088.37 261.722 1089.07 261.722ZM1098.23 267.091C1097.94 267.091 1097.69 267.067 1097.47 267.02C1097.25 266.977 1097.09 266.935 1097.01 266.892L1097.43 265.415C1097.84 265.519 1098.2 265.557 1098.51 265.528C1098.83 265.5 1099.1 265.36 1099.34 265.109C1099.59 264.863 1099.82 264.463 1100.02 263.909L1100.33 263.057L1096.3 252.091H1098.12L1101.13 260.784H1101.24L1104.25 252.091H1106.07L1101.44 264.591C1101.23 265.154 1100.97 265.621 1100.66 265.99C1100.36 266.364 1100 266.641 1099.59 266.821C1099.19 267.001 1098.74 267.091 1098.23 267.091Z" fill="black"/>
<path d="M1002 326.227C1001.09 326.227 1000.29 325.998 999.595 325.538C998.899 325.074 998.355 324.421 997.962 323.578C997.569 322.731 997.372 321.729 997.372 320.574C997.372 319.428 997.569 318.434 997.962 317.591C998.355 316.748 998.902 316.097 999.602 315.638C1000.3 315.179 1001.11 314.949 1002.03 314.949C1002.74 314.949 1003.3 315.067 1003.71 315.304C1004.13 315.536 1004.45 315.801 1004.67 316.099C1004.89 316.393 1005.06 316.634 1005.18 316.824H1005.33V311.455H1007V326H1005.38V324.324H1005.18C1005.06 324.523 1004.89 324.774 1004.66 325.077C1004.43 325.375 1004.11 325.643 1003.69 325.879C1003.26 326.111 1002.7 326.227 1002 326.227ZM1002.23 324.722C1002.9 324.722 1003.47 324.546 1003.93 324.196C1004.4 323.841 1004.75 323.351 1004.99 322.726C1005.23 322.096 1005.36 321.369 1005.36 320.545C1005.36 319.731 1005.24 319.018 1005 318.408C1004.76 317.792 1004.41 317.314 1003.95 316.973C1003.49 316.627 1002.91 316.455 1002.23 316.455C1001.52 316.455 1000.93 316.637 1000.45 317.001C999.986 317.361 999.633 317.851 999.396 318.472C999.164 319.087 999.048 319.778 999.048 320.545C999.048 321.322 999.167 322.027 999.404 322.662C999.645 323.292 1000 323.794 1000.47 324.168C1000.94 324.537 1001.53 324.722 1002.23 324.722ZM1010.31 326V315.091H1011.98V326H1010.31ZM1011.16 313.273C1010.83 313.273 1010.55 313.161 1010.31 312.939C1010.08 312.716 1009.96 312.449 1009.96 312.136C1009.96 311.824 1010.08 311.556 1010.31 311.334C1010.55 311.111 1010.83 311 1011.16 311C1011.48 311 1011.76 311.111 1012 311.334C1012.23 311.556 1012.35 311.824 1012.35 312.136C1012.35 312.449 1012.23 312.716 1012 312.939C1011.76 313.161 1011.48 313.273 1011.16 313.273ZM1023.97 315.091L1019.94 326H1018.23L1014.2 315.091H1016.02L1019.03 323.784H1019.14L1022.15 315.091H1023.97Z" fill="black"/>
<path d="M1141.46 317.534L1139.95 317.96C1139.86 317.709 1139.72 317.465 1139.53 317.229C1139.35 316.987 1139.11 316.788 1138.8 316.632C1138.48 316.476 1138.08 316.398 1137.59 316.398C1136.93 316.398 1136.37 316.552 1135.93 316.859C1135.49 317.162 1135.27 317.548 1135.27 318.017C1135.27 318.434 1135.42 318.763 1135.72 319.004C1136.02 319.246 1136.5 319.447 1137.14 319.608L1138.76 320.006C1139.74 320.242 1140.46 320.605 1140.94 321.092C1141.42 321.575 1141.66 322.198 1141.66 322.96C1141.66 323.585 1141.48 324.144 1141.12 324.636C1140.76 325.129 1140.27 325.517 1139.63 325.801C1138.99 326.085 1138.24 326.227 1137.4 326.227C1136.28 326.227 1135.36 325.986 1134.63 325.503C1133.9 325.02 1133.44 324.314 1133.25 323.386L1134.84 322.989C1134.99 323.576 1135.28 324.016 1135.7 324.31C1136.12 324.603 1136.68 324.75 1137.37 324.75C1138.15 324.75 1138.77 324.584 1139.23 324.253C1139.69 323.917 1139.92 323.514 1139.92 323.045C1139.92 322.667 1139.79 322.349 1139.53 322.094C1139.26 321.833 1138.85 321.639 1138.31 321.511L1136.49 321.085C1135.49 320.848 1134.75 320.482 1134.29 319.984C1133.82 319.482 1133.59 318.855 1133.59 318.102C1133.59 317.487 1133.76 316.942 1134.11 316.469C1134.46 315.995 1134.93 315.624 1135.54 315.354C1136.14 315.084 1136.83 314.949 1137.59 314.949C1138.67 314.949 1139.52 315.186 1140.14 315.659C1140.76 316.133 1141.2 316.758 1141.46 317.534ZM1144.18 330.091V315.091H1145.8V316.824H1146C1146.12 316.634 1146.29 316.393 1146.51 316.099C1146.73 315.801 1147.05 315.536 1147.46 315.304C1147.88 315.067 1148.44 314.949 1149.15 314.949C1150.07 314.949 1150.88 315.179 1151.58 315.638C1152.28 316.097 1152.83 316.748 1153.22 317.591C1153.61 318.434 1153.81 319.428 1153.81 320.574C1153.81 321.729 1153.61 322.731 1153.22 323.578C1152.83 324.421 1152.28 325.074 1151.59 325.538C1150.89 325.998 1150.09 326.227 1149.18 326.227C1148.48 326.227 1147.92 326.111 1147.5 325.879C1147.08 325.643 1146.75 325.375 1146.52 325.077C1146.3 324.774 1146.12 324.523 1146 324.324H1145.86V330.091H1144.18ZM1145.83 320.545C1145.83 321.369 1145.95 322.096 1146.19 322.726C1146.43 323.351 1146.78 323.841 1147.25 324.196C1147.71 324.546 1148.28 324.722 1148.95 324.722C1149.65 324.722 1150.24 324.537 1150.71 324.168C1151.18 323.794 1151.54 323.292 1151.77 322.662C1152.01 322.027 1152.14 321.322 1152.14 320.545C1152.14 319.778 1152.02 319.087 1151.78 318.472C1151.55 317.851 1151.2 317.361 1150.72 317.001C1150.25 316.637 1149.66 316.455 1148.95 316.455C1148.27 316.455 1147.7 316.627 1147.23 316.973C1146.77 317.314 1146.42 317.792 1146.18 318.408C1145.95 319.018 1145.83 319.731 1145.83 320.545ZM1159.58 326.256C1158.89 326.256 1158.26 326.125 1157.7 325.865C1157.13 325.6 1156.69 325.219 1156.35 324.722C1156.02 324.22 1155.86 323.614 1155.86 322.903C1155.86 322.278 1155.98 321.772 1156.23 321.384C1156.47 320.991 1156.8 320.683 1157.21 320.46C1157.63 320.238 1158.08 320.072 1158.58 319.963C1159.08 319.849 1159.58 319.759 1160.09 319.693C1160.75 319.608 1161.29 319.544 1161.7 319.501C1162.12 319.454 1162.42 319.376 1162.61 319.267C1162.81 319.158 1162.9 318.969 1162.9 318.699V318.642C1162.9 317.941 1162.71 317.397 1162.33 317.009C1161.95 316.62 1161.37 316.426 1160.6 316.426C1159.8 316.426 1159.17 316.601 1158.72 316.952C1158.26 317.302 1157.94 317.676 1157.76 318.074L1156.17 317.506C1156.45 316.843 1156.83 316.327 1157.31 315.957C1157.78 315.583 1158.3 315.323 1158.87 315.176C1159.44 315.025 1159.99 314.949 1160.54 314.949C1160.89 314.949 1161.3 314.991 1161.75 315.077C1162.21 315.157 1162.65 315.325 1163.08 315.581C1163.51 315.837 1163.87 316.223 1164.15 316.739C1164.44 317.255 1164.58 317.946 1164.58 318.812V326H1162.9V324.523H1162.82C1162.7 324.759 1162.51 325.013 1162.25 325.283C1161.98 325.553 1161.63 325.782 1161.19 325.972C1160.75 326.161 1160.21 326.256 1159.58 326.256ZM1159.83 324.75C1160.5 324.75 1161.06 324.62 1161.51 324.359C1161.97 324.099 1162.32 323.763 1162.55 323.351C1162.78 322.939 1162.9 322.506 1162.9 322.051V320.517C1162.83 320.602 1162.67 320.68 1162.43 320.751C1162.2 320.818 1161.92 320.877 1161.61 320.929C1161.3 320.976 1161 321.019 1160.71 321.057C1160.42 321.09 1160.18 321.118 1160 321.142C1159.57 321.199 1159.16 321.291 1158.78 321.419C1158.41 321.542 1158.11 321.729 1157.87 321.98C1157.65 322.226 1157.53 322.562 1157.53 322.989C1157.53 323.571 1157.75 324.011 1158.18 324.31C1158.61 324.603 1159.17 324.75 1159.83 324.75ZM1169.31 319.438V326H1167.64V315.091H1169.26V316.795H1169.4C1169.65 316.241 1170.04 315.796 1170.56 315.46C1171.08 315.119 1171.76 314.949 1172.58 314.949C1173.32 314.949 1173.97 315.1 1174.52 315.403C1175.07 315.702 1175.5 316.156 1175.81 316.767C1176.12 317.373 1176.27 318.14 1176.27 319.068V326H1174.6V319.182C1174.6 318.325 1174.38 317.657 1173.93 317.179C1173.49 316.696 1172.87 316.455 1172.1 316.455C1171.56 316.455 1171.08 316.571 1170.66 316.803C1170.25 317.035 1169.92 317.373 1169.68 317.818C1169.43 318.263 1169.31 318.803 1169.31 319.438Z" fill="black"/>
<path d="M901.705 153H897.216V138.455H901.904C903.315 138.455 904.522 138.746 905.526 139.328C906.53 139.906 907.299 140.737 907.834 141.821C908.369 142.901 908.637 144.193 908.637 145.699C908.637 147.214 908.367 148.518 907.827 149.612C907.287 150.701 906.501 151.539 905.469 152.126C904.437 152.709 903.182 153 901.705 153ZM898.978 151.438H901.591C902.794 151.438 903.791 151.205 904.581 150.741C905.372 150.277 905.962 149.617 906.35 148.76C906.738 147.903 906.932 146.883 906.932 145.699C906.932 144.525 906.741 143.514 906.357 142.666C905.974 141.814 905.401 141.161 904.638 140.706C903.876 140.247 902.927 140.017 901.79 140.017H898.978V151.438ZM915.796 153.227C914.811 153.227 913.947 152.993 913.204 152.524C912.465 152.055 911.887 151.4 911.471 150.557C911.059 149.714 910.853 148.729 910.853 147.602C910.853 146.466 911.059 145.474 911.471 144.626C911.887 143.779 912.465 143.121 913.204 142.652C913.947 142.183 914.811 141.949 915.796 141.949C916.781 141.949 917.643 142.183 918.381 142.652C919.125 143.121 919.702 143.779 920.114 144.626C920.531 145.474 920.739 146.466 920.739 147.602C920.739 148.729 920.531 149.714 920.114 150.557C919.702 151.4 919.125 152.055 918.381 152.524C917.643 152.993 916.781 153.227 915.796 153.227ZM915.796 151.722C916.544 151.722 917.16 151.53 917.643 151.146C918.126 150.763 918.483 150.259 918.715 149.634C918.947 149.009 919.063 148.331 919.063 147.602C919.063 146.873 918.947 146.194 918.715 145.564C918.483 144.934 918.126 144.425 917.643 144.037C917.16 143.649 916.544 143.455 915.796 143.455C915.048 143.455 914.432 143.649 913.949 144.037C913.466 144.425 913.109 144.934 912.877 145.564C912.645 146.194 912.529 146.873 912.529 147.602C912.529 148.331 912.645 149.009 912.877 149.634C913.109 150.259 913.466 150.763 913.949 151.146C914.432 151.53 915.048 151.722 915.796 151.722ZM927.73 153.227C926.707 153.227 925.826 152.986 925.088 152.503C924.349 152.02 923.781 151.355 923.383 150.507C922.985 149.66 922.786 148.691 922.786 147.602C922.786 146.494 922.99 145.517 923.397 144.669C923.809 143.817 924.382 143.152 925.116 142.673C925.855 142.19 926.716 141.949 927.701 141.949C928.468 141.949 929.16 142.091 929.775 142.375C930.391 142.659 930.895 143.057 931.288 143.568C931.681 144.08 931.925 144.676 932.019 145.358H930.343C930.215 144.861 929.931 144.42 929.491 144.037C929.055 143.649 928.468 143.455 927.73 143.455C927.076 143.455 926.503 143.625 926.011 143.966C925.523 144.302 925.142 144.778 924.867 145.393C924.597 146.004 924.463 146.722 924.463 147.545C924.463 148.388 924.595 149.122 924.86 149.747C925.13 150.372 925.509 150.857 925.997 151.203C926.489 151.549 927.067 151.722 927.73 151.722C928.165 151.722 928.561 151.646 928.916 151.494C929.271 151.343 929.571 151.125 929.818 150.841C930.064 150.557 930.239 150.216 930.343 149.818H932.019C931.925 150.462 931.69 151.042 931.316 151.558C930.947 152.07 930.457 152.477 929.846 152.78C929.24 153.078 928.535 153.227 927.73 153.227ZM941.345 148.54V142.091H943.021V153H941.345V151.153H941.231C940.975 151.707 940.578 152.179 940.038 152.567C939.498 152.95 938.816 153.142 937.992 153.142C937.311 153.142 936.704 152.993 936.174 152.695C935.644 152.392 935.227 151.937 934.924 151.331C934.621 150.72 934.47 149.951 934.47 149.023V142.091H936.146V148.909C936.146 149.705 936.368 150.339 936.813 150.812C937.263 151.286 937.836 151.523 938.532 151.523C938.949 151.523 939.373 151.416 939.803 151.203C940.239 150.99 940.604 150.663 940.897 150.223C941.195 149.783 941.345 149.222 941.345 148.54ZM946.091 153V142.091H947.71V143.795H947.852C948.079 143.213 948.446 142.761 948.953 142.439C949.46 142.112 950.068 141.949 950.778 141.949C951.498 141.949 952.097 142.112 952.575 142.439C953.058 142.761 953.434 143.213 953.704 143.795H953.818C954.097 143.232 954.516 142.785 955.075 142.453C955.634 142.117 956.304 141.949 957.085 141.949C958.06 141.949 958.858 142.254 959.479 142.865C960.099 143.471 960.409 144.416 960.409 145.699V153H958.733V145.699C958.733 144.894 958.513 144.319 958.072 143.973C957.632 143.627 957.113 143.455 956.517 143.455C955.75 143.455 955.156 143.687 954.734 144.151C954.313 144.61 954.102 145.192 954.102 145.898V153H952.398V145.528C952.398 144.908 952.196 144.409 951.794 144.03C951.391 143.646 950.873 143.455 950.238 143.455C949.803 143.455 949.396 143.571 949.017 143.803C948.643 144.035 948.34 144.357 948.108 144.768C947.881 145.176 947.767 145.647 947.767 146.182V153H946.091ZM968.047 153.227C966.996 153.227 966.09 152.995 965.327 152.531C964.57 152.062 963.985 151.409 963.573 150.571C963.166 149.728 962.962 148.748 962.962 147.631C962.962 146.513 963.166 145.528 963.573 144.676C963.985 143.819 964.558 143.152 965.292 142.673C966.03 142.19 966.892 141.949 967.877 141.949C968.445 141.949 969.006 142.044 969.56 142.233C970.114 142.422 970.618 142.73 971.073 143.156C971.528 143.578 971.89 144.136 972.16 144.832C972.43 145.528 972.564 146.385 972.564 147.403V148.114H964.155V146.665H970.86C970.86 146.049 970.737 145.5 970.491 145.017C970.249 144.534 969.903 144.153 969.454 143.874C969.009 143.594 968.483 143.455 967.877 143.455C967.209 143.455 966.632 143.62 966.144 143.952C965.661 144.278 965.289 144.705 965.029 145.23C964.769 145.756 964.638 146.319 964.638 146.92V147.886C964.638 148.71 964.78 149.409 965.064 149.982C965.353 150.55 965.753 150.983 966.265 151.281C966.776 151.575 967.37 151.722 968.047 151.722C968.488 151.722 968.885 151.66 969.241 151.537C969.6 151.409 969.911 151.22 970.171 150.969C970.431 150.713 970.633 150.396 970.775 150.017L972.394 150.472C972.224 151.021 971.937 151.504 971.535 151.92C971.132 152.332 970.635 152.654 970.043 152.886C969.451 153.114 968.786 153.227 968.047 153.227ZM976.79 146.438V153H975.114V142.091H976.733V143.795H976.876C977.131 143.241 977.519 142.796 978.04 142.46C978.561 142.119 979.233 141.949 980.057 141.949C980.796 141.949 981.442 142.1 981.996 142.403C982.55 142.702 982.981 143.156 983.289 143.767C983.597 144.373 983.751 145.14 983.751 146.068V153H982.074V146.182C982.074 145.325 981.852 144.657 981.407 144.179C980.962 143.696 980.351 143.455 979.574 143.455C979.039 143.455 978.561 143.571 978.14 143.803C977.723 144.035 977.394 144.373 977.153 144.818C976.911 145.263 976.79 145.803 976.79 146.438ZM991.558 142.091V143.511H985.904V142.091H991.558ZM987.552 139.477H989.228V149.875C989.228 150.348 989.297 150.704 989.434 150.94C989.576 151.172 989.756 151.329 989.974 151.409C990.196 151.485 990.431 151.523 990.677 151.523C990.862 151.523 991.013 151.513 991.132 151.494C991.25 151.471 991.345 151.452 991.416 151.438L991.757 152.943C991.643 152.986 991.484 153.028 991.281 153.071C991.077 153.118 990.819 153.142 990.507 153.142C990.033 153.142 989.569 153.04 989.115 152.837C988.665 152.633 988.291 152.323 987.992 151.906C987.699 151.49 987.552 150.964 987.552 150.33V139.477Z" fill="black"/>
<path d="M944 164.5V179.5" stroke="#4A4A4A" stroke-width="2" stroke-linecap="round"/>
<path d="M944.5 212V229M944.5 229H803.5V241.5M944.5 229H1080V241.5" stroke="#4A4A4A" stroke-width="2" stroke-linecap="round"/>
<path d="M1154 306V291.5H1080.5M1011.5 306V291.5H1080.5M1080.5 291.5V274.5" stroke="#4A4A4A" stroke-width="2" stroke-linecap="round"/>
<path d="M166.045 436.832V470.168H170.869V436.832H166.045ZM169.609 449.576V453.5H175.477V449.576H169.609ZM157.297 440.288V441.116C157.297 450.152 153.157 456.272 144.409 460.808L147.073 464.444C158.161 458.864 161.977 450.296 161.977 440.288H157.297ZM146.245 440.288V444.14H159.745V440.288H146.245ZM189.622 439.928V440.756C189.622 443.42 186.418 446.408 179.11 447.128L180.802 450.836C189.37 450.008 193.87 445.832 193.87 440.756V439.928H189.622ZM191.962 439.928V440.756C191.962 445.868 196.498 450.008 205.03 450.836L206.722 447.128C199.414 446.444 196.21 443.456 196.21 440.756V439.928H191.962ZM180.586 438.092V441.872H205.282V438.092H180.586ZM177.85 453.068V456.884H208.018V453.068H177.85ZM190.486 448.784V454.76H195.238V448.784H190.486ZM181.198 459.296V463.076H199.558V470.204H204.346V459.296H181.198ZM212.443 439.28V443.132H226.699V439.28H212.443ZM216.547 447.056V455.408H221.299V447.056H216.547ZM224.827 439.28V441.368C224.827 443.672 224.827 446.552 224.107 450.656L228.751 451.16C229.543 447.02 229.543 443.708 229.543 441.368V439.28H224.827ZM232.783 436.868V461.816H237.607V436.868H232.783ZM235.699 447.02V450.944H241.567V447.02H235.699ZM215.359 465.812V469.628H238.651V465.812H215.359ZM215.359 459.584V467H220.147V459.584H215.359ZM210.931 457.352C216.655 457.352 224.395 457.208 231.271 455.912L230.983 452.528C224.287 453.464 216.259 453.572 210.499 453.572L210.931 457.352ZM256.937 445.652V449.468H263.705V445.652H256.937ZM256.757 453.968V457.784H263.561V453.968H256.757ZM268.241 436.868V470.204H272.813V436.868H268.241ZM261.365 437.588V468.728H265.829V437.588H261.365ZM253.841 440.792V441.764C253.841 449.828 251.141 455.372 243.617 459.944L246.317 463.292C255.605 457.82 258.449 450.26 258.449 440.792H253.841ZM245.525 440.792V444.608H255.461V440.792H245.525ZM280.73 451.736V455.552H304.166V451.736H280.73ZM277.238 462.536V466.46H307.406V462.536H277.238ZM289.874 453.464V463.796H294.662V453.464H289.874ZM280.73 439.136V453.392H285.518V442.988H303.914V439.136H280.73ZM318.887 453.68V461.456H321.875V453.68H318.887ZM320.363 439.352C315.359 439.352 311.759 442.484 311.759 447.02C311.759 451.556 315.359 454.688 320.363 454.688C325.367 454.688 328.967 451.556 328.967 447.02C328.967 442.484 325.367 439.352 320.363 439.352ZM320.363 441.908C323.675 441.908 326.051 443.996 326.051 447.02C326.051 450.044 323.675 452.132 320.363 452.132C317.051 452.132 314.675 450.044 314.675 447.02C314.675 443.996 317.051 441.908 320.363 441.908ZM332.675 437.264V469.808H335.663V437.264H332.675ZM334.799 450.656V453.176H340.811V450.656H334.799ZM310.715 462.788C316.403 462.788 323.999 462.716 330.875 461.564L330.623 459.332C323.999 460.232 316.151 460.268 310.283 460.304L310.715 462.788ZM374.873 436.832V470.168H379.697V436.832H374.873ZM378.437 449.576V453.5H384.305V449.576H378.437ZM366.125 440.288V441.116C366.125 450.152 361.985 456.272 353.237 460.808L355.901 464.444C366.989 458.864 370.805 450.296 370.805 440.288H366.125ZM355.073 440.288V444.14H368.573V440.288H355.073ZM398.45 439.928V440.756C398.45 443.42 395.246 446.408 387.938 447.128L389.63 450.836C398.198 450.008 402.698 445.832 402.698 440.756V439.928H398.45ZM400.79 439.928V440.756C400.79 445.868 405.326 450.008 413.858 450.836L415.55 447.128C408.242 446.444 405.038 443.456 405.038 440.756V439.928H400.79ZM389.414 438.092V441.872H414.11V438.092H389.414ZM386.678 453.068V456.884H416.846V453.068H386.678ZM399.314 448.784V454.76H404.066V448.784H399.314ZM390.026 459.296V463.076H408.386V470.204H413.174V459.296H390.026ZM423.251 438.812V442.592H444.167V438.812H423.251ZM419.831 452.996V456.848H449.963V452.996H419.831ZM432.323 455.696V470.24H437.147V455.696H432.323ZM441.719 438.812V441.764C441.719 445.22 441.719 449.18 440.423 454.76L445.139 455.3C446.435 449.396 446.435 445.364 446.435 441.764V438.812H441.719ZM460.653 438.596V441.584C460.653 446.156 458.313 450.656 452.625 452.492L455.109 456.344C461.661 454.148 464.649 448.28 464.649 441.584V438.596H460.653ZM461.661 438.596V441.368C461.661 447.848 464.325 453.212 470.481 455.336L472.965 451.592C467.673 449.9 465.513 445.796 465.513 441.368V438.596H461.661ZM476.025 436.868V456.38H480.813V436.868H476.025ZM469.509 457.244C462.453 457.244 458.097 459.656 458.097 463.724C458.097 467.828 462.453 470.204 469.509 470.204C476.565 470.204 480.921 467.828 480.921 463.724C480.921 459.656 476.565 457.244 469.509 457.244ZM469.509 460.952C473.865 460.952 476.169 461.852 476.169 463.724C476.169 465.596 473.865 466.532 469.509 466.532C465.189 466.532 462.885 465.596 462.885 463.724C462.885 461.852 465.189 460.952 469.509 460.952ZM469.941 442.916V446.804H476.709V442.916H469.941ZM494.706 453.968V461.276H499.494V453.968H494.706ZM509.322 436.868V462.104H514.11V436.868H509.322ZM490.098 465.812V469.628H514.83V465.812H490.098ZM490.098 459.728V466.82H494.886V459.728H490.098ZM486.498 455.408C492.51 455.408 500.322 455.228 507.414 454.04L507.126 450.62C500.142 451.52 492.006 451.592 485.922 451.592L486.498 455.408ZM503.022 456.236V459.512H510.366V456.236H503.022ZM496.65 438.02C491.754 438.02 488.334 440.432 488.334 443.96C488.334 447.524 491.754 449.9 496.65 449.9C501.51 449.9 504.93 447.524 504.93 443.96C504.93 440.432 501.51 438.02 496.65 438.02ZM496.65 441.512C498.846 441.512 500.394 442.34 500.394 443.96C500.394 445.58 498.846 446.408 496.65 446.408C494.418 446.408 492.87 445.58 492.87 443.96C492.87 442.34 494.418 441.512 496.65 441.512Z" fill="black"/>
<path d="M774.971 467H765.69V440.818H775.048C777.681 440.818 779.948 441.342 781.849 442.391C783.749 443.43 785.211 444.926 786.234 446.878C787.265 448.83 787.781 451.165 787.781 453.884C787.781 456.611 787.265 458.955 786.234 460.915C785.211 462.875 783.741 464.379 781.823 465.428C779.914 466.476 777.63 467 774.971 467ZM771.225 462.257H774.741C776.377 462.257 777.754 461.967 778.87 461.388C779.995 460.8 780.839 459.892 781.401 458.665C781.972 457.429 782.258 455.835 782.258 453.884C782.258 451.949 781.972 450.368 781.401 449.141C780.839 447.913 779.999 447.01 778.883 446.43C777.766 445.851 776.39 445.561 774.754 445.561H771.225V462.257ZM800.651 467.384C798.665 467.384 796.948 466.962 795.499 466.118C794.059 465.266 792.946 464.081 792.162 462.564C791.378 461.038 790.986 459.27 790.986 457.259C790.986 455.23 791.378 453.457 792.162 451.94C792.946 450.415 794.059 449.23 795.499 448.386C796.948 447.534 798.665 447.108 800.651 447.108C802.637 447.108 804.35 447.534 805.79 448.386C807.239 449.23 808.355 450.415 809.14 451.94C809.924 453.457 810.316 455.23 810.316 457.259C810.316 459.27 809.924 461.038 809.14 462.564C808.355 464.081 807.239 465.266 805.79 466.118C804.35 466.962 802.637 467.384 800.651 467.384ZM800.676 463.165C801.58 463.165 802.334 462.909 802.939 462.398C803.544 461.878 804 461.17 804.307 460.276C804.623 459.381 804.78 458.362 804.78 457.22C804.78 456.078 804.623 455.06 804.307 454.165C804 453.27 803.544 452.562 802.939 452.043C802.334 451.523 801.58 451.263 800.676 451.263C799.765 451.263 798.998 451.523 798.375 452.043C797.762 452.562 797.297 453.27 796.982 454.165C796.675 455.06 796.522 456.078 796.522 457.22C796.522 458.362 796.675 459.381 796.982 460.276C797.297 461.17 797.762 461.878 798.375 462.398C798.998 462.909 799.765 463.165 800.676 463.165ZM813.857 467V447.364H819.047V450.828H819.277C819.686 449.678 820.368 448.77 821.323 448.105C822.277 447.44 823.419 447.108 824.749 447.108C826.096 447.108 827.242 447.445 828.188 448.118C829.134 448.783 829.765 449.686 830.08 450.828H830.284C830.685 449.703 831.409 448.804 832.458 448.131C833.515 447.449 834.763 447.108 836.203 447.108C838.036 447.108 839.523 447.692 840.665 448.859C841.816 450.018 842.391 451.663 842.391 453.794V467H836.958V454.868C836.958 453.777 836.668 452.959 836.088 452.413C835.509 451.868 834.784 451.595 833.915 451.595C832.926 451.595 832.155 451.911 831.601 452.541C831.047 453.163 830.77 453.986 830.77 455.009V467H825.49V454.753C825.49 453.79 825.213 453.023 824.659 452.452C824.114 451.881 823.394 451.595 822.499 451.595C821.894 451.595 821.348 451.749 820.863 452.055C820.385 452.354 820.006 452.776 819.725 453.321C819.444 453.858 819.303 454.489 819.303 455.213V467H813.857ZM847.895 456.504C847.895 453.334 848.316 450.415 849.16 447.747C850.012 445.08 851.312 442.608 853.059 440.332H858.262C857.598 441.176 856.98 442.207 856.409 443.426C855.838 444.636 855.339 445.966 854.913 447.415C854.487 448.864 854.154 450.364 853.916 451.915C853.677 453.457 853.558 454.987 853.558 456.504C853.558 458.524 853.762 460.565 854.172 462.628C854.589 464.682 855.152 466.591 855.859 468.355C856.575 470.119 857.376 471.564 858.262 472.689H853.059C851.312 470.413 850.012 467.942 849.16 465.274C848.316 462.607 847.895 459.683 847.895 456.504ZM870.807 467H861.526V440.818H870.884C873.517 440.818 875.784 441.342 877.685 442.391C879.585 443.43 881.047 444.926 882.07 446.878C883.101 448.83 883.616 451.165 883.616 453.884C883.616 456.611 883.101 458.955 882.07 460.915C881.047 462.875 879.577 464.379 877.659 465.428C875.75 466.476 873.466 467 870.807 467ZM867.061 462.257H870.577C872.213 462.257 873.589 461.967 874.706 461.388C875.831 460.8 876.675 459.892 877.237 458.665C877.808 457.429 878.094 455.835 878.094 453.884C878.094 451.949 877.808 450.368 877.237 449.141C876.675 447.913 875.835 447.01 874.719 446.43C873.602 445.851 872.226 445.561 870.589 445.561H867.061V462.257ZM896.487 467.384C894.501 467.384 892.784 466.962 891.335 466.118C889.895 465.266 888.782 464.081 887.998 462.564C887.214 461.038 886.822 459.27 886.822 457.259C886.822 455.23 887.214 453.457 887.998 451.94C888.782 450.415 889.895 449.23 891.335 448.386C892.784 447.534 894.501 447.108 896.487 447.108C898.473 447.108 900.186 447.534 901.626 448.386C903.075 449.23 904.191 450.415 904.975 451.94C905.76 453.457 906.152 455.23 906.152 457.259C906.152 459.27 905.76 461.038 904.975 462.564C904.191 464.081 903.075 465.266 901.626 466.118C900.186 466.962 898.473 467.384 896.487 467.384ZM896.512 463.165C897.416 463.165 898.17 462.909 898.775 462.398C899.38 461.878 899.836 461.17 900.143 460.276C900.458 459.381 900.616 458.362 900.616 457.22C900.616 456.078 900.458 455.06 900.143 454.165C899.836 453.27 899.38 452.562 898.775 452.043C898.17 451.523 897.416 451.263 896.512 451.263C895.6 451.263 894.833 451.523 894.211 452.043C893.598 452.562 893.133 453.27 892.818 454.165C892.511 455.06 892.358 456.078 892.358 457.22C892.358 458.362 892.511 459.381 892.818 460.276C893.133 461.17 893.598 461.878 894.211 462.398C894.833 462.909 895.6 463.165 896.512 463.165ZM909.693 467V447.364H914.883V450.828H915.113C915.522 449.678 916.204 448.77 917.159 448.105C918.113 447.44 919.255 447.108 920.585 447.108C921.931 447.108 923.078 447.445 924.024 448.118C924.97 448.783 925.6 449.686 925.916 450.828H926.12C926.521 449.703 927.245 448.804 928.294 448.131C929.35 447.449 930.599 447.108 932.039 447.108C933.872 447.108 935.359 447.692 936.501 448.859C937.652 450.018 938.227 451.663 938.227 453.794V467H932.794V454.868C932.794 453.777 932.504 452.959 931.924 452.413C931.345 451.868 930.62 451.595 929.751 451.595C928.762 451.595 927.991 451.911 927.437 452.541C926.883 453.163 926.606 453.986 926.606 455.009V467H921.326V454.753C921.326 453.79 921.049 453.023 920.495 452.452C919.95 451.881 919.23 451.595 918.335 451.595C917.73 451.595 917.184 451.749 916.699 452.055C916.221 452.354 915.842 452.776 915.561 453.321C915.279 453.858 915.139 454.489 915.139 455.213V467H909.693ZM949.966 445.382V440.818H971.469V445.382H963.453V467H957.982V445.382H949.966ZM972.869 467V447.364H978.148V450.79H978.353C978.711 449.571 979.312 448.651 980.156 448.028C980.999 447.398 981.971 447.082 983.07 447.082C983.343 447.082 983.637 447.099 983.952 447.134C984.268 447.168 984.545 447.214 984.783 447.274V452.107C984.528 452.03 984.174 451.962 983.722 451.902C983.271 451.842 982.857 451.812 982.482 451.812C981.681 451.812 980.965 451.987 980.335 452.337C979.712 452.678 979.218 453.155 978.852 453.768C978.494 454.382 978.315 455.089 978.315 455.891V467H972.869ZM995.634 467.384C993.614 467.384 991.875 466.974 990.418 466.156C988.969 465.33 987.853 464.162 987.069 462.653C986.284 461.136 985.892 459.342 985.892 457.271C985.892 455.251 986.284 453.479 987.069 451.953C987.853 450.428 988.956 449.239 990.38 448.386C991.811 447.534 993.49 447.108 995.417 447.108C996.712 447.108 997.918 447.317 999.034 447.734C1000.16 448.143 1001.14 448.761 1001.97 449.588C1002.82 450.415 1003.47 451.455 1003.94 452.707C1004.41 453.952 1004.65 455.409 1004.65 457.08V458.575H988.066V455.2H999.52C999.52 454.416 999.35 453.722 999.009 453.116C998.668 452.511 998.195 452.038 997.59 451.697C996.993 451.348 996.299 451.173 995.506 451.173C994.679 451.173 993.946 451.365 993.307 451.749C992.676 452.124 992.182 452.631 991.824 453.27C991.466 453.901 991.283 454.604 991.275 455.379V458.588C991.275 459.56 991.453 460.399 991.811 461.107C992.178 461.814 992.694 462.359 993.358 462.743C994.023 463.126 994.811 463.318 995.723 463.318C996.328 463.318 996.882 463.233 997.385 463.062C997.888 462.892 998.319 462.636 998.676 462.295C999.034 461.955 999.307 461.537 999.495 461.043L1004.53 461.375C1004.28 462.585 1003.75 463.642 1002.96 464.545C1002.18 465.44 1001.16 466.139 999.917 466.642C998.681 467.136 997.253 467.384 995.634 467.384ZM1017.15 467.384C1015.13 467.384 1013.39 466.974 1011.93 466.156C1010.48 465.33 1009.37 464.162 1008.58 462.653C1007.8 461.136 1007.41 459.342 1007.41 457.271C1007.41 455.251 1007.8 453.479 1008.58 451.953C1009.37 450.428 1010.47 449.239 1011.9 448.386C1013.33 447.534 1015.01 447.108 1016.93 447.108C1018.23 447.108 1019.43 447.317 1020.55 447.734C1021.68 448.143 1022.66 448.761 1023.49 449.588C1024.33 450.415 1024.99 451.455 1025.46 452.707C1025.93 453.952 1026.16 455.409 1026.16 457.08V458.575H1009.58V455.2H1021.04C1021.04 454.416 1020.87 453.722 1020.52 453.116C1020.18 452.511 1019.71 452.038 1019.11 451.697C1018.51 451.348 1017.81 451.173 1017.02 451.173C1016.19 451.173 1015.46 451.365 1014.82 451.749C1014.19 452.124 1013.7 452.631 1013.34 453.27C1012.98 453.901 1012.8 454.604 1012.79 455.379V458.588C1012.79 459.56 1012.97 460.399 1013.33 461.107C1013.69 461.814 1014.21 462.359 1014.87 462.743C1015.54 463.126 1016.33 463.318 1017.24 463.318C1017.84 463.318 1018.4 463.233 1018.9 463.062C1019.4 462.892 1019.83 462.636 1020.19 462.295C1020.55 461.955 1020.82 461.537 1021.01 461.043L1026.05 461.375C1025.79 462.585 1025.27 463.642 1024.47 464.545C1023.69 465.44 1022.68 466.139 1021.43 466.642C1020.2 467.136 1018.77 467.384 1017.15 467.384ZM1038.9 456.504C1038.9 459.683 1038.47 462.607 1037.62 465.274C1036.77 467.942 1035.48 470.413 1033.73 472.689H1028.53C1029.19 471.845 1029.81 470.814 1030.38 469.595C1030.95 468.376 1031.45 467.047 1031.88 465.607C1032.3 464.158 1032.64 462.658 1032.87 461.107C1033.11 459.555 1033.23 458.021 1033.23 456.504C1033.23 454.484 1033.02 452.447 1032.61 450.393C1032.2 448.331 1031.63 446.422 1030.92 444.666C1030.21 442.902 1029.41 441.457 1028.53 440.332H1033.73C1035.48 442.608 1036.77 445.08 1037.62 447.747C1038.47 450.415 1038.9 453.334 1038.9 456.504ZM1052.28 453.68V461.456H1055.27V453.68H1052.28ZM1053.76 439.352C1048.75 439.352 1045.15 442.484 1045.15 447.02C1045.15 451.556 1048.75 454.688 1053.76 454.688C1058.76 454.688 1062.36 451.556 1062.36 447.02C1062.36 442.484 1058.76 439.352 1053.76 439.352ZM1053.76 441.908C1057.07 441.908 1059.45 443.996 1059.45 447.02C1059.45 450.044 1057.07 452.132 1053.76 452.132C1050.45 452.132 1048.07 450.044 1048.07 447.02C1048.07 443.996 1050.45 441.908 1053.76 441.908ZM1066.07 437.264V469.808H1069.06V437.264H1066.07ZM1068.19 450.656V453.176H1074.21V450.656H1068.19ZM1044.11 462.788C1049.8 462.788 1057.39 462.716 1064.27 461.564L1064.02 459.332C1057.39 460.232 1049.55 460.268 1043.68 460.304L1044.11 462.788ZM1109.69 440.818V467H1104.91L1093.52 450.521H1093.33V467H1087.79V440.818H1092.65L1103.95 457.284H1104.18V440.818H1109.69ZM1123.03 467.384C1121.05 467.384 1119.33 466.962 1117.88 466.118C1116.44 465.266 1115.33 464.081 1114.55 462.564C1113.76 461.038 1113.37 459.27 1113.37 457.259C1113.37 455.23 1113.76 453.457 1114.55 451.94C1115.33 450.415 1116.44 449.23 1117.88 448.386C1119.33 447.534 1121.05 447.108 1123.03 447.108C1125.02 447.108 1126.73 447.534 1128.17 448.386C1129.62 449.23 1130.74 450.415 1131.52 451.94C1132.31 453.457 1132.7 455.23 1132.7 457.259C1132.7 459.27 1132.31 461.038 1131.52 462.564C1130.74 464.081 1129.62 465.266 1128.17 466.118C1126.73 466.962 1125.02 467.384 1123.03 467.384ZM1123.06 463.165C1123.96 463.165 1124.72 462.909 1125.32 462.398C1125.93 461.878 1126.38 461.17 1126.69 460.276C1127.01 459.381 1127.16 458.362 1127.16 457.22C1127.16 456.078 1127.01 455.06 1126.69 454.165C1126.38 453.27 1125.93 452.562 1125.32 452.043C1124.72 451.523 1123.96 451.263 1123.06 451.263C1122.15 451.263 1121.38 451.523 1120.76 452.043C1120.14 452.562 1119.68 453.27 1119.36 454.165C1119.06 455.06 1118.9 456.078 1118.9 457.22C1118.9 458.362 1119.06 459.381 1119.36 460.276C1119.68 461.17 1120.14 461.878 1120.76 462.398C1121.38 462.909 1122.15 463.165 1123.06 463.165ZM1143.48 467.32C1141.98 467.32 1140.63 466.936 1139.42 466.169C1138.22 465.393 1137.27 464.256 1136.56 462.756C1135.86 461.247 1135.51 459.398 1135.51 457.207C1135.51 454.957 1135.87 453.087 1136.6 451.595C1137.32 450.095 1138.29 448.974 1139.49 448.233C1140.7 447.483 1142.02 447.108 1143.46 447.108C1144.56 447.108 1145.48 447.295 1146.21 447.67C1146.95 448.037 1147.55 448.497 1148 449.051C1148.46 449.597 1148.81 450.134 1149.05 450.662H1149.22V440.818H1154.65V467H1149.28V463.855H1149.05C1148.79 464.401 1148.43 464.942 1147.96 465.479C1147.5 466.007 1146.9 466.446 1146.16 466.795C1145.43 467.145 1144.53 467.32 1143.48 467.32ZM1145.2 462.986C1146.08 462.986 1146.82 462.747 1147.43 462.27C1148.04 461.784 1148.51 461.107 1148.83 460.237C1149.16 459.368 1149.33 458.349 1149.33 457.182C1149.33 456.014 1149.17 455 1148.84 454.139C1148.52 453.278 1148.05 452.614 1147.44 452.145C1146.82 451.676 1146.08 451.442 1145.2 451.442C1144.31 451.442 1143.55 451.685 1142.94 452.17C1142.32 452.656 1141.86 453.33 1141.55 454.19C1141.23 455.051 1141.07 456.048 1141.07 457.182C1141.07 458.324 1141.23 459.334 1141.55 460.212C1141.87 461.081 1142.33 461.763 1142.94 462.257C1143.55 462.743 1144.31 462.986 1145.2 462.986ZM1168.08 467.384C1166.06 467.384 1164.32 466.974 1162.86 466.156C1161.41 465.33 1160.29 464.162 1159.51 462.653C1158.73 461.136 1158.33 459.342 1158.33 457.271C1158.33 455.251 1158.73 453.479 1159.51 451.953C1160.29 450.428 1161.4 449.239 1162.82 448.386C1164.25 447.534 1165.93 447.108 1167.86 447.108C1169.15 447.108 1170.36 447.317 1171.48 447.734C1172.6 448.143 1173.58 448.761 1174.42 449.588C1175.26 450.415 1175.92 451.455 1176.38 452.707C1176.85 453.952 1177.09 455.409 1177.09 457.08V458.575H1160.51V455.2H1171.96C1171.96 454.416 1171.79 453.722 1171.45 453.116C1171.11 452.511 1170.64 452.038 1170.03 451.697C1169.43 451.348 1168.74 451.173 1167.95 451.173C1167.12 451.173 1166.39 451.365 1165.75 451.749C1165.12 452.124 1164.62 452.631 1164.27 453.27C1163.91 453.901 1163.72 454.604 1163.72 455.379V458.588C1163.72 459.56 1163.89 460.399 1164.25 461.107C1164.62 461.814 1165.13 462.359 1165.8 462.743C1166.46 463.126 1167.25 463.318 1168.16 463.318C1168.77 463.318 1169.32 463.233 1169.83 463.062C1170.33 462.892 1170.76 462.636 1171.12 462.295C1171.48 461.955 1171.75 461.537 1171.94 461.043L1176.97 461.375C1176.72 462.585 1176.19 463.642 1175.4 464.545C1174.62 465.44 1173.6 466.139 1172.36 466.642C1171.12 467.136 1169.69 467.384 1168.08 467.384ZM1180.27 450.836V453.284H1209.68V450.836H1180.27ZM1184.16 445.796V448.208H1206.19V445.796H1184.16ZM1184.16 438.308V447.74H1187.11V440.756H1205.83V438.308H1184.16ZM1183.8 456.092V458.432H1202.95V461.528H1183.87V467.864H1186.82V463.76H1205.9V456.092H1183.8ZM1183.87 467.072V469.448H1206.87V467.072H1183.87Z" fill="black"/>
<path d="M642.123 454.369V451.608H657.873V454.369H642.123ZM642.123 461.938V459.176H657.873V461.938H642.123Z" fill="black"/>
</svg>
