<svg width="960" height="68" viewBox="0 0 960 68" fill="none" xmlns="http://www.w3.org/2000/svg">
<path d="M284 48L279 43" stroke="#4A4A4A" stroke-width="2"/>
<path d="M279.086 52.2003L284 47.4648" stroke="#4A4A4A" stroke-width="2"/>
<path d="M263 48L284 48" stroke="#4A4A4A" stroke-width="2"/>
<rect y="28" width="80" height="40" fill="#C4C4C4"/>
<path d="M23.625 54.4211H19.5852V41.3302H23.804C25.0739 41.3302 26.1605 41.5923 27.0639 42.1165C27.9673 42.6363 28.6598 43.3842 29.1413 44.3601C29.6229 45.3317 29.8636 46.495 29.8636 47.8501C29.8636 49.2138 29.6207 50.3878 29.1349 51.3721C28.6491 52.3523 27.9418 53.1065 27.0128 53.6349C26.0838 54.1591 24.9545 54.4211 23.625 54.4211ZM21.1705 53.0149H23.5227C24.6051 53.0149 25.5021 52.8061 26.2138 52.3885C26.9254 51.9709 27.456 51.3764 27.8054 50.6051C28.1548 49.8338 28.3295 48.9155 28.3295 47.8501C28.3295 46.7933 28.157 45.8835 27.8118 45.1207C27.4666 44.3537 26.951 43.7656 26.2649 43.3565C25.5788 42.9432 24.7244 42.7365 23.7017 42.7365H21.1705V53.0149ZM43.5682 47.8757C43.5682 49.2564 43.3189 50.4496 42.8203 51.4552C42.3217 52.4609 41.6378 53.2365 40.7685 53.7819C39.8991 54.3274 38.9063 54.6001 37.7898 54.6001C36.6733 54.6001 35.6804 54.3274 34.8111 53.7819C33.9418 53.2365 33.2578 52.4609 32.7592 51.4552C32.2607 50.4496 32.0114 49.2564 32.0114 47.8757C32.0114 46.495 32.2607 45.3018 32.7592 44.2961C33.2578 43.2905 33.9418 42.5149 34.8111 41.9694C35.6804 41.424 36.6733 41.1513 37.7898 41.1513C38.9063 41.1513 39.8991 41.424 40.7685 41.9694C41.6378 42.5149 42.3217 43.2905 42.8203 44.2961C43.3189 45.3018 43.5682 46.495 43.5682 47.8757ZM42.0341 47.8757C42.0341 46.7422 41.8445 45.7855 41.4652 45.0057C41.0902 44.2258 40.581 43.6356 39.9375 43.2351C39.2983 42.8345 38.5824 42.6342 37.7898 42.6342C36.9972 42.6342 36.2791 42.8345 35.6357 43.2351C34.9964 43.6356 34.4872 44.2258 34.108 45.0057C33.733 45.7855 33.5455 46.7422 33.5455 47.8757C33.5455 49.0092 33.733 49.9659 34.108 50.7457C34.4872 51.5255 34.9964 52.1157 35.6357 52.5163C36.2791 52.9169 36.9972 53.1172 37.7898 53.1172C38.5824 53.1172 39.2983 52.9169 39.9375 52.5163C40.581 52.1157 41.0902 51.5255 41.4652 50.7457C41.8445 49.9659 42.0341 49.0092 42.0341 47.8757ZM46.2337 41.3302H48.1257L52.5746 52.1967H52.728L57.1768 41.3302H59.0689V54.4211H57.5859V44.4751H57.4581L53.3672 54.4211H51.9354L47.8445 44.4751H47.7166V54.4211H46.2337V41.3302Z" fill="black"/>
<rect x="138" y="28" width="100" height="40" fill="#C4C4C4"/>
<path d="M166.119 45.4211H164.534C164.44 44.9652 164.276 44.5646 164.042 44.2194C163.812 43.8743 163.531 43.5845 163.198 43.3501C162.87 43.1115 162.506 42.9325 162.105 42.8132C161.705 42.6939 161.287 42.6342 160.852 42.6342C160.06 42.6342 159.342 42.8345 158.698 43.2351C158.059 43.6356 157.55 44.2258 157.17 45.0057C156.795 45.7855 156.608 46.7422 156.608 47.8757C156.608 49.0092 156.795 49.9659 157.17 50.7457C157.55 51.5255 158.059 52.1157 158.698 52.5163C159.342 52.9169 160.06 53.1172 160.852 53.1172C161.287 53.1172 161.705 53.0575 162.105 52.9382C162.506 52.8189 162.87 52.642 163.198 52.4076C163.531 52.169 163.812 51.8771 164.042 51.5319C164.276 51.1825 164.44 50.7819 164.534 50.3302H166.119C166 50.9993 165.783 51.598 165.467 52.1264C165.152 52.6548 164.76 53.1044 164.291 53.4751C163.822 53.8416 163.296 54.1207 162.712 54.3125C162.133 54.5042 161.513 54.6001 160.852 54.6001C159.736 54.6001 158.743 54.3274 157.874 53.7819C157.004 53.2365 156.32 52.4609 155.822 51.4552C155.323 50.4496 155.074 49.2564 155.074 47.8757C155.074 46.495 155.323 45.3018 155.822 44.2961C156.32 43.2905 157.004 42.5149 157.874 41.9694C158.743 41.424 159.736 41.1513 160.852 41.1513C161.513 41.1513 162.133 41.2471 162.712 41.4389C163.296 41.6307 163.822 41.9119 164.291 42.2826C164.76 42.6491 165.152 43.0966 165.467 43.625C165.783 44.1491 166 44.7478 166.119 45.4211ZM175.84 44.603C175.763 43.9552 175.452 43.4524 174.907 43.0944C174.361 42.7365 173.692 42.5575 172.9 42.5575C172.32 42.5575 171.813 42.6513 171.378 42.8388C170.948 43.0263 170.611 43.2841 170.368 43.6122C170.13 43.9403 170.01 44.3132 170.01 44.7308C170.01 45.0802 170.094 45.3807 170.26 45.6321C170.43 45.8792 170.648 46.0859 170.912 46.2521C171.176 46.414 171.453 46.5483 171.743 46.6548C172.032 46.7571 172.299 46.8402 172.542 46.9041L173.871 47.2621C174.212 47.3515 174.591 47.4751 175.009 47.6328C175.431 47.7905 175.834 48.0057 176.217 48.2784C176.605 48.5469 176.925 48.892 177.176 49.3139C177.427 49.7358 177.553 50.2535 177.553 50.8672C177.553 51.5746 177.368 52.2138 176.997 52.7848C176.631 53.3558 176.094 53.8096 175.386 54.1463C174.683 54.4829 173.829 54.6513 172.823 54.6513C171.885 54.6513 171.074 54.5 170.388 54.1974C169.706 53.8949 169.169 53.473 168.777 52.9318C168.389 52.3906 168.17 51.7621 168.118 51.0461H169.755C169.797 51.5405 169.964 51.9496 170.253 52.2734C170.547 52.593 170.918 52.8317 171.366 52.9893C171.817 53.1427 172.303 53.2194 172.823 53.2194C173.428 53.2194 173.971 53.1214 174.453 52.9254C174.934 52.7251 175.316 52.4481 175.597 52.0944C175.878 51.7365 176.019 51.3189 176.019 50.8416C176.019 50.4069 175.898 50.0532 175.655 49.7805C175.412 49.5078 175.092 49.2862 174.696 49.1157C174.3 48.9453 173.871 48.7961 173.411 48.6683L171.8 48.2081C170.778 47.914 169.968 47.4943 169.371 46.9488C168.775 46.4034 168.476 45.6896 168.476 44.8075C168.476 44.0746 168.675 43.4353 169.071 42.8899C169.471 42.3402 170.008 41.914 170.682 41.6115C171.359 41.3047 172.116 41.1513 172.951 41.1513C173.795 41.1513 174.545 41.3025 175.201 41.6051C175.857 41.9034 176.377 42.3125 176.76 42.8324C177.148 43.3522 177.353 43.9424 177.374 44.603H175.84ZM187.319 44.603C187.242 43.9552 186.931 43.4524 186.385 43.0944C185.84 42.7365 185.171 42.5575 184.378 42.5575C183.799 42.5575 183.292 42.6513 182.857 42.8388C182.426 43.0263 182.09 43.2841 181.847 43.6122C181.608 43.9403 181.489 44.3132 181.489 44.7308C181.489 45.0802 181.572 45.3807 181.738 45.6321C181.909 45.8792 182.126 46.0859 182.39 46.2521C182.654 46.414 182.931 46.5483 183.221 46.6548C183.511 46.7571 183.777 46.8402 184.02 46.9041L185.35 47.2621C185.691 47.3515 186.07 47.4751 186.488 47.6328C186.909 47.7905 187.312 48.0057 187.696 48.2784C188.083 48.5469 188.403 48.892 188.654 49.3139C188.906 49.7358 189.032 50.2535 189.032 50.8672C189.032 51.5746 188.846 52.2138 188.475 52.7848C188.109 53.3558 187.572 53.8096 186.865 54.1463C186.162 54.4829 185.307 54.6513 184.301 54.6513C183.364 54.6513 182.552 54.5 181.866 54.1974C181.184 53.8949 180.647 53.473 180.255 52.9318C179.868 52.3906 179.648 51.7621 179.597 51.0461H181.233C181.276 51.5405 181.442 51.9496 181.732 52.2734C182.026 52.593 182.397 52.8317 182.844 52.9893C183.296 53.1427 183.782 53.2194 184.301 53.2194C184.907 53.2194 185.45 53.1214 185.931 52.9254C186.413 52.7251 186.794 52.4481 187.076 52.0944C187.357 51.7365 187.498 51.3189 187.498 50.8416C187.498 50.4069 187.376 50.0532 187.133 49.7805C186.89 49.5078 186.571 49.2862 186.174 49.1157C185.778 48.9453 185.35 48.7961 184.89 48.6683L183.279 48.2081C182.256 47.914 181.446 47.4943 180.85 46.9488C180.253 46.4034 179.955 45.6896 179.955 44.8075C179.955 44.0746 180.153 43.4353 180.549 42.8899C180.95 42.3402 181.487 41.914 182.16 41.6115C182.838 41.3047 183.594 41.1513 184.429 41.1513C185.273 41.1513 186.023 41.3025 186.679 41.6051C187.336 41.9034 187.855 42.3125 188.239 42.8324C188.627 43.3522 188.831 43.9424 188.853 44.603H187.319ZM202.683 47.8757C202.683 49.2564 202.434 50.4496 201.936 51.4552C201.437 52.4609 200.753 53.2365 199.884 53.7819C199.014 54.3274 198.021 54.6001 196.905 54.6001C195.789 54.6001 194.796 54.3274 193.926 53.7819C193.057 53.2365 192.373 52.4609 191.874 51.4552C191.376 50.4496 191.127 49.2564 191.127 47.8757C191.127 46.495 191.376 45.3018 191.874 44.2961C192.373 43.2905 193.057 42.5149 193.926 41.9694C194.796 41.424 195.789 41.1513 196.905 41.1513C198.021 41.1513 199.014 41.424 199.884 41.9694C200.753 42.5149 201.437 43.2905 201.936 44.2961C202.434 45.3018 202.683 46.495 202.683 47.8757ZM201.149 47.8757C201.149 46.7422 200.96 45.7855 200.58 45.0057C200.205 44.2258 199.696 43.6356 199.053 43.2351C198.414 42.8345 197.698 42.6342 196.905 42.6342C196.112 42.6342 195.394 42.8345 194.751 43.2351C194.112 43.6356 193.602 44.2258 193.223 45.0057C192.848 45.7855 192.661 46.7422 192.661 47.8757C192.661 49.0092 192.848 49.9659 193.223 50.7457C193.602 51.5255 194.112 52.1157 194.751 52.5163C195.394 52.9169 196.112 53.1172 196.905 53.1172C197.698 53.1172 198.414 52.9169 199.053 52.5163C199.696 52.1157 200.205 51.5255 200.58 50.7457C200.96 49.9659 201.149 49.0092 201.149 47.8757ZM205.349 41.3302H207.241L211.69 52.1967H211.843L216.292 41.3302H218.184V54.4211H216.701V44.4751H216.573L212.482 54.4211H211.051L206.96 44.4751H206.832V54.4211H205.349V41.3302Z" fill="black"/>
<rect x="313" y="28" width="120" height="40" fill="#C4C4C4"/>
<path d="M325.497 53.4211V41.0575H329.675C330.641 41.0575 331.433 41.2225 332.053 41.5525C332.673 41.8785 333.132 42.3273 333.43 42.8988C333.728 43.4703 333.876 44.1202 333.876 44.8487C333.876 45.5772 333.728 46.2231 333.43 46.7866C333.132 47.35 332.675 47.7927 332.059 48.1147C331.444 48.4326 330.657 48.5916 329.699 48.5916H326.318V47.2393H329.651C330.311 47.2393 330.842 47.1427 331.244 46.9496C331.651 46.7564 331.945 46.4827 332.126 46.1285C332.311 45.7703 332.403 45.3437 332.403 44.8487C332.403 44.3537 332.311 43.921 332.126 43.5508C331.941 43.1805 331.645 42.8947 331.238 42.6935C330.832 42.4883 330.295 42.3856 329.626 42.3856H326.994V53.4211H325.497ZM331.317 47.8672L334.359 53.4211H332.621L329.626 47.8672H331.317ZM339.966 53.6143C339.073 53.6143 338.302 53.4171 337.654 53.0227C337.01 52.6243 336.513 52.0689 336.163 51.3565C335.817 50.6401 335.644 49.807 335.644 48.8572C335.644 47.9074 335.817 47.0703 336.163 46.3459C336.513 45.6174 337 45.0499 337.624 44.6434C338.252 44.2329 338.984 44.0277 339.821 44.0277C340.304 44.0277 340.781 44.1082 341.252 44.2692C341.723 44.4301 342.152 44.6917 342.538 45.054C342.924 45.4121 343.232 45.8871 343.462 46.4787C343.691 47.0703 343.806 47.7987 343.806 48.664V49.2677H336.658V48.0362H342.357C342.357 47.513 342.252 47.0461 342.043 46.6356C341.838 46.2251 341.544 45.9011 341.161 45.6637C340.783 45.4262 340.336 45.3075 339.821 45.3075C339.254 45.3075 338.763 45.4484 338.348 45.7301C337.938 46.0078 337.622 46.37 337.4 46.8167C337.179 47.2635 337.068 47.7424 337.068 48.2535V49.0746C337.068 49.7748 337.189 50.3685 337.431 50.8554C337.676 51.3384 338.016 51.7067 338.451 51.9602C338.886 52.2097 339.391 52.3345 339.966 52.3345C340.34 52.3345 340.679 52.2822 340.98 52.1775C341.286 52.0689 341.55 51.9079 341.771 51.6946C341.993 51.4773 342.164 51.2076 342.284 50.8856L343.661 51.272C343.516 51.7389 343.272 52.1494 342.93 52.5035C342.588 52.8537 342.166 53.1273 341.663 53.3246C341.159 53.5177 340.594 53.6143 339.966 53.6143ZM347.398 47.843V53.4211H345.973V44.1484H347.349V45.5973H347.47C347.687 45.1264 348.017 44.7481 348.46 44.4623C348.903 44.1726 349.474 44.0277 350.175 44.0277C350.802 44.0277 351.352 44.1565 351.823 44.414C352.294 44.6676 352.66 45.054 352.921 45.5731C353.183 46.0883 353.314 46.7403 353.314 47.5291V53.4211H351.889V47.6257C351.889 46.8972 351.7 46.3298 351.322 45.9233C350.943 45.5128 350.424 45.3075 349.764 45.3075C349.309 45.3075 348.903 45.4061 348.545 45.6033C348.19 45.8005 347.911 46.0883 347.706 46.4666C347.5 46.8449 347.398 47.3037 347.398 47.843ZM359.419 53.6143C358.646 53.6143 357.964 53.4191 357.372 53.0287C356.781 52.6343 356.318 52.0789 355.984 51.3625C355.65 50.6421 355.483 49.7909 355.483 48.8089C355.483 47.835 355.65 46.9898 355.984 46.2734C356.318 45.557 356.783 45.0036 357.378 44.6133C357.974 44.2229 358.662 44.0277 359.443 44.0277C360.047 44.0277 360.523 44.1283 360.874 44.3295C361.228 44.5267 361.497 44.7521 361.683 45.0057C361.872 45.2552 362.019 45.4604 362.123 45.6214H362.244V41.0575H363.669V53.4211H362.292V51.9964H362.123C362.019 52.1655 361.87 52.3788 361.676 52.6363C361.483 52.8899 361.208 53.1173 360.849 53.3185C360.491 53.5157 360.014 53.6143 359.419 53.6143ZM359.612 52.3345C360.183 52.3345 360.666 52.1856 361.061 51.8878C361.455 51.5859 361.755 51.1694 361.96 50.6381C362.165 50.1028 362.268 49.4851 362.268 48.7848C362.268 48.0925 362.167 47.4868 361.966 46.9677C361.765 46.4445 361.467 46.038 361.073 45.7482C360.678 45.4544 360.191 45.3075 359.612 45.3075C359.008 45.3075 358.505 45.4625 358.103 45.7723C357.704 46.0782 357.404 46.4948 357.203 47.022C357.006 47.5452 356.907 48.1328 356.907 48.7848C356.907 49.4448 357.008 50.0445 357.209 50.5838C357.414 51.1191 357.716 51.5457 358.115 51.8636C358.517 52.1775 359.016 52.3345 359.612 52.3345ZM370.364 53.6143C369.47 53.6143 368.699 53.4171 368.051 53.0227C367.408 52.6243 366.911 52.0689 366.56 51.3565C366.214 50.6401 366.041 49.807 366.041 48.8572C366.041 47.9074 366.214 47.0703 366.56 46.3459C366.911 45.6174 367.397 45.0499 368.021 44.6434C368.649 44.2329 369.382 44.0277 370.219 44.0277C370.702 44.0277 371.179 44.1082 371.65 44.2692C372.12 44.4301 372.549 44.6917 372.935 45.054C373.322 45.4121 373.63 45.8871 373.859 46.4787C374.088 47.0703 374.203 47.7987 374.203 48.664V49.2677H367.055V48.0362H372.754C372.754 47.513 372.65 47.0461 372.44 46.6356C372.235 46.2251 371.941 45.9011 371.559 45.6637C371.181 45.4262 370.734 45.3075 370.219 45.3075C369.651 45.3075 369.16 45.4484 368.746 45.7301C368.335 46.0078 368.019 46.37 367.798 46.8167C367.577 47.2635 367.466 47.7424 367.466 48.2535V49.0746C367.466 49.7748 367.587 50.3685 367.828 50.8554C368.074 51.3384 368.414 51.7067 368.848 51.9602C369.283 52.2097 369.788 52.3345 370.364 52.3345C370.738 52.3345 371.076 52.2822 371.378 52.1775C371.684 52.0689 371.947 51.9079 372.169 51.6946C372.39 51.4773 372.561 51.2076 372.682 50.8856L374.058 51.272C373.913 51.7389 373.67 52.1494 373.328 52.5035C372.986 52.8537 372.563 53.1273 372.06 53.3246C371.557 53.5177 370.991 53.6143 370.364 53.6143ZM376.37 53.4211V44.1484H377.747V45.549H377.843C378.012 45.0902 378.318 44.7179 378.761 44.4322C379.204 44.1464 379.703 44.0035 380.258 44.0035C380.363 44.0035 380.494 44.0055 380.651 44.0096C380.808 44.0136 380.926 44.0196 381.007 44.0277V45.4765C380.958 45.4645 380.848 45.4464 380.675 45.4222C380.506 45.394 380.327 45.3799 380.137 45.3799C379.687 45.3799 379.284 45.4745 378.93 45.6637C378.58 45.8488 378.302 46.1064 378.097 46.4364C377.896 46.7624 377.795 47.1347 377.795 47.5532V53.4211H376.37ZM386.994 42.3856V41.0575H396.267V42.3856H392.379V53.4211H390.882V42.3856H386.994ZM397.421 53.4211V44.1484H398.798V45.549H398.894C399.063 45.0902 399.369 44.7179 399.812 44.4322C400.254 44.1464 400.754 44.0035 401.309 44.0035C401.414 44.0035 401.544 44.0055 401.701 44.0096C401.858 44.0136 401.977 44.0196 402.058 44.0277V45.4765C402.009 45.4645 401.899 45.4464 401.725 45.4222C401.556 45.394 401.377 45.3799 401.188 45.3799C400.737 45.3799 400.335 45.4745 399.981 45.6637C399.631 45.8488 399.353 46.1064 399.148 46.4364C398.946 46.7624 398.846 47.1347 398.846 47.5532V53.4211H397.421ZM407.352 53.6143C406.458 53.6143 405.688 53.4171 405.04 53.0227C404.396 52.6243 403.899 52.0689 403.549 51.3565C403.203 50.6401 403.029 49.807 403.029 48.8572C403.029 47.9074 403.203 47.0703 403.549 46.3459C403.899 45.6174 404.386 45.0499 405.01 44.6434C405.637 44.2329 406.37 44.0277 407.207 44.0277C407.69 44.0277 408.167 44.1082 408.638 44.2692C409.109 44.4301 409.537 44.6917 409.924 45.054C410.31 45.4121 410.618 45.8871 410.847 46.4787C411.077 47.0703 411.191 47.7987 411.191 48.664V49.2677H404.044V48.0362H409.743C409.743 47.513 409.638 47.0461 409.429 46.6356C409.223 46.2251 408.93 45.9011 408.547 45.6637C408.169 45.4262 407.722 45.3075 407.207 45.3075C406.64 45.3075 406.149 45.4484 405.734 45.7301C405.324 46.0078 405.008 46.37 404.786 46.8167C404.565 47.2635 404.454 47.7424 404.454 48.2535V49.0746C404.454 49.7748 404.575 50.3685 404.816 50.8554C405.062 51.3384 405.402 51.7067 405.837 51.9602C406.271 52.2097 406.776 52.3345 407.352 52.3345C407.726 52.3345 408.064 52.2822 408.366 52.1775C408.672 52.0689 408.936 51.9079 409.157 51.6946C409.378 51.4773 409.549 51.2076 409.67 50.8856L411.047 51.272C410.902 51.7389 410.658 52.1494 410.316 52.5035C409.974 52.8537 409.551 53.1273 409.048 53.3246C408.545 53.5177 407.98 53.6143 407.352 53.6143ZM417.246 53.6143C416.353 53.6143 415.582 53.4171 414.934 53.0227C414.29 52.6243 413.793 52.0689 413.443 51.3565C413.097 50.6401 412.924 49.807 412.924 48.8572C412.924 47.9074 413.097 47.0703 413.443 46.3459C413.793 45.6174 414.28 45.0499 414.904 44.6434C415.532 44.2329 416.264 44.0277 417.102 44.0277C417.585 44.0277 418.061 44.1082 418.532 44.2692C419.003 44.4301 419.432 44.6917 419.818 45.054C420.205 45.4121 420.512 45.8871 420.742 46.4787C420.971 47.0703 421.086 47.7987 421.086 48.664V49.2677H413.938V48.0362H419.637C419.637 47.513 419.532 47.0461 419.323 46.6356C419.118 46.2251 418.824 45.9011 418.442 45.6637C418.063 45.4262 417.617 45.3075 417.102 45.3075C416.534 45.3075 416.043 45.4484 415.629 45.7301C415.218 46.0078 414.902 46.37 414.681 46.8167C414.459 47.2635 414.349 47.7424 414.349 48.2535V49.0746C414.349 49.7748 414.469 50.3685 414.711 50.8554C414.956 51.3384 415.297 51.7067 415.731 51.9602C416.166 52.2097 416.671 52.3345 417.246 52.3345C417.621 52.3345 417.959 52.2822 418.261 52.1775C418.567 52.0689 418.83 51.9079 419.051 51.6946C419.273 51.4773 419.444 51.2076 419.565 50.8856L420.941 51.272C420.796 51.7389 420.553 52.1494 420.211 52.5035C419.868 52.8537 419.446 53.1273 418.943 53.3246C418.44 53.5177 417.874 53.6143 417.246 53.6143Z" fill="black"/>
<path d="M105 48.25H113.5" stroke="#4A4A4A" stroke-width="2" stroke-linecap="round"/>
<path d="M109.25 52.5L109.25 44" stroke="#4A4A4A" stroke-width="2" stroke-linecap="round"/>
<path d="M28.9125 11.4545C28.9125 9.84375 29.1213 8.36293 29.539 7.01207C29.9608 5.65696 30.5617 4.41051 31.3415 3.27273H32.6711C32.3642 3.6946 32.0766 4.21449 31.8081 4.83239C31.5439 5.44602 31.3117 6.12145 31.1114 6.85866C30.9111 7.59162 30.7534 8.35014 30.6384 9.13423C30.5276 9.91832 30.4722 10.6918 30.4722 11.4545C30.4722 12.4688 30.5702 13.4979 30.7662 14.5419C30.9623 15.5859 31.2265 16.5554 31.5588 17.4503C31.8912 18.3452 32.262 19.0739 32.6711 19.6364H31.3415C30.5617 18.4986 29.9608 17.2543 29.539 15.9034C29.1213 14.5483 28.9125 13.0653 28.9125 11.4545ZM41.2738 4.90909V18H39.6886V6.57102H39.6119L36.4158 8.69318V7.08239L39.6886 4.90909H41.2738ZM50.0859 11.4545C50.0859 13.0653 49.8749 14.5483 49.4531 15.9034C49.0354 17.2543 48.4367 18.4986 47.6569 19.6364H46.3273C46.6342 19.2145 46.9197 18.6946 47.1839 18.0767C47.4523 17.4631 47.6867 16.7898 47.887 16.0568C48.0873 15.3196 48.2428 14.5589 48.3536 13.7749C48.4687 12.9865 48.5262 12.2131 48.5262 11.4545C48.5262 10.4403 48.4282 9.41122 48.2322 8.36719C48.0361 7.32315 47.7719 6.35369 47.4396 5.45881C47.1072 4.56392 46.7364 3.83523 46.3273 3.27273H47.6569C48.4367 4.41051 49.0354 5.65696 49.4531 7.01207C49.8749 8.36293 50.0859 9.84375 50.0859 11.4545Z" fill="black"/>
<path d="M176.647 11.4545C176.647 9.84375 176.856 8.36293 177.273 7.01207C177.695 5.65696 178.296 4.41051 179.076 3.27273H180.405C180.099 3.6946 179.811 4.21449 179.543 4.83239C179.278 5.44602 179.046 6.12145 178.846 6.85866C178.645 7.59162 178.488 8.35014 178.373 9.13423C178.262 9.91832 178.207 10.6918 178.207 11.4545C178.207 12.4688 178.305 13.4979 178.501 14.5419C178.697 15.5859 178.961 16.5554 179.293 17.4503C179.626 18.3452 179.996 19.0739 180.405 19.6364H179.076C178.296 18.4986 177.695 17.2543 177.273 15.9034C176.856 14.5483 176.647 13.0653 176.647 11.4545ZM184.406 18V16.8494L188.727 12.1193C189.234 11.5653 189.652 11.0838 189.98 10.6747C190.308 10.2614 190.551 9.87358 190.708 9.51136C190.87 9.14489 190.951 8.76136 190.951 8.3608C190.951 7.90057 190.841 7.50213 190.619 7.16548C190.402 6.82883 190.103 6.56889 189.724 6.38565C189.345 6.20241 188.919 6.1108 188.446 6.1108C187.943 6.1108 187.504 6.2152 187.129 6.42401C186.758 6.62855 186.471 6.91619 186.266 7.28693C186.066 7.65767 185.966 8.09233 185.966 8.59091H184.457C184.457 7.82386 184.634 7.15057 184.988 6.57102C185.341 5.99148 185.823 5.53977 186.432 5.21591C187.046 4.89204 187.734 4.73011 188.497 4.73011C189.264 4.73011 189.944 4.89204 190.536 5.21591C191.128 5.53977 191.593 5.97656 191.929 6.52628C192.266 7.07599 192.434 7.6875 192.434 8.3608C192.434 8.84233 192.347 9.31321 192.172 9.77344C192.002 10.2294 191.703 10.7386 191.277 11.3011C190.855 11.8594 190.27 12.5412 189.52 13.3466L186.579 16.4915V16.5938H192.664V18H184.406ZM200.351 11.4545C200.351 13.0653 200.141 14.5483 199.719 15.9034C199.301 17.2543 198.702 18.4986 197.923 19.6364H196.593C196.9 19.2145 197.185 18.6946 197.45 18.0767C197.718 17.4631 197.952 16.7898 198.153 16.0568C198.353 15.3196 198.508 14.5589 198.619 13.7749C198.734 12.9865 198.792 12.2131 198.792 11.4545C198.792 10.4403 198.694 9.41122 198.498 8.36719C198.302 7.32315 198.038 6.35369 197.705 5.45881C197.373 4.56392 197.002 3.83523 196.593 3.27273H197.923C198.702 4.41051 199.301 5.65696 199.719 7.01207C200.141 8.36293 200.351 9.84375 200.351 11.4545Z" fill="black"/>
<path d="M361.366 11.4545C361.366 9.84375 361.574 8.36293 361.992 7.01207C362.414 5.65696 363.015 4.41051 363.795 3.27273H365.124C364.817 3.6946 364.53 4.21449 364.261 4.83239C363.997 5.44602 363.765 6.12145 363.565 6.85866C363.364 7.59162 363.207 8.35014 363.092 9.13423C362.981 9.91832 362.925 10.6918 362.925 11.4545C362.925 12.4688 363.023 13.4979 363.219 14.5419C363.415 15.5859 363.68 16.5554 364.012 17.4503C364.344 18.3452 364.715 19.0739 365.124 19.6364H363.795C363.015 18.4986 362.414 17.2543 361.992 15.9034C361.574 14.5483 361.366 13.0653 361.366 11.4545ZM373.548 18.179C372.704 18.179 371.952 18.0341 371.292 17.7443C370.635 17.4545 370.113 17.0518 369.725 16.5362C369.342 16.0163 369.133 15.4134 369.099 14.7273H370.71C370.744 15.1491 370.889 15.5135 371.145 15.8203C371.4 16.1229 371.735 16.3572 372.148 16.5234C372.561 16.6896 373.02 16.7727 373.522 16.7727C374.085 16.7727 374.583 16.6747 375.018 16.4787C375.453 16.2827 375.794 16.0099 376.041 15.6605C376.288 15.3111 376.412 14.9062 376.412 14.446C376.412 13.9645 376.292 13.5405 376.054 13.174C375.815 12.8033 375.466 12.5135 375.005 12.3047C374.545 12.0959 373.983 11.9915 373.318 11.9915H372.27V10.5852H373.318C373.838 10.5852 374.294 10.4915 374.686 10.304C375.082 10.1165 375.391 9.85227 375.613 9.51136C375.838 9.17045 375.951 8.76989 375.951 8.30966C375.951 7.86648 375.853 7.48082 375.657 7.1527C375.461 6.82457 375.184 6.56889 374.826 6.38565C374.473 6.20241 374.055 6.1108 373.574 6.1108C373.122 6.1108 372.696 6.19389 372.295 6.36009C371.899 6.52202 371.575 6.75852 371.324 7.0696C371.072 7.37642 370.936 7.74716 370.914 8.18182H369.38C369.406 7.49574 369.613 6.89489 370 6.37926C370.388 5.85937 370.895 5.45454 371.522 5.16477C372.152 4.875 372.845 4.73011 373.599 4.73011C374.409 4.73011 375.103 4.89418 375.683 5.2223C376.262 5.54616 376.708 5.97443 377.019 6.5071C377.33 7.03977 377.485 7.61506 377.485 8.23295C377.485 8.97017 377.292 9.59872 376.904 10.1186C376.52 10.6385 375.998 10.9986 375.338 11.1989V11.3011C376.164 11.4375 376.81 11.7891 377.275 12.3558C377.739 12.9183 377.971 13.6151 377.971 14.446C377.971 15.1577 377.777 15.7969 377.39 16.3636C377.006 16.9261 376.482 17.3693 375.817 17.6932C375.152 18.017 374.396 18.179 373.548 18.179ZM385.633 11.4545C385.633 13.0653 385.422 14.5483 385 15.9034C384.582 17.2543 383.984 18.4986 383.204 19.6364H381.874C382.181 19.2145 382.467 18.6946 382.731 18.0767C382.999 17.4631 383.234 16.7898 383.434 16.0568C383.634 15.3196 383.79 14.5589 383.9 13.7749C384.016 12.9865 384.073 12.2131 384.073 11.4545C384.073 10.4403 383.975 9.41122 383.779 8.36719C383.583 7.32315 383.319 6.35369 382.986 5.45881C382.654 4.56392 382.283 3.83523 381.874 3.27273H383.204C383.984 4.41051 384.582 5.65696 385 7.01207C385.422 8.36293 385.633 9.84375 385.633 11.4545Z" fill="black"/>
<path d="M633 48L628 43" stroke="#4A4A4A" stroke-width="2"/>
<path d="M628.086 52.2003L633 47.4648" stroke="#4A4A4A" stroke-width="2"/>
<path d="M612 48L633 48" stroke="#4A4A4A" stroke-width="2"/>
<path d="M804 47L799 42" stroke="#4A4A4A" stroke-width="2"/>
<path d="M799.086 51.2003L804 46.4648" stroke="#4A4A4A" stroke-width="2"/>
<path d="M783 47L804 47" stroke="#4A4A4A" stroke-width="2"/>
<rect x="502" y="28" width="90" height="40" fill="#C4C4C4"/>
<path d="M518.585 54.4211V41.3302H520.17V53.0149H526.256V54.4211H518.585ZM531.395 54.6513C530.773 54.6513 530.208 54.5341 529.701 54.2997C529.194 54.0611 528.791 53.718 528.493 53.2706C528.195 52.8189 528.045 52.2734 528.045 51.6342C528.045 51.0717 528.156 50.6157 528.378 50.2663C528.599 49.9126 528.896 49.6356 529.266 49.4353C529.637 49.2351 530.046 49.0859 530.494 48.9879C530.945 48.8856 531.399 48.8047 531.855 48.745C532.452 48.6683 532.935 48.6108 533.306 48.5724C533.681 48.5298 533.954 48.4595 534.124 48.3615C534.299 48.2635 534.386 48.093 534.386 47.8501V47.799C534.386 47.1683 534.214 46.6782 533.869 46.3288C533.528 45.9794 533.01 45.8047 532.315 45.8047C531.595 45.8047 531.031 45.9623 530.621 46.2777C530.212 46.593 529.925 46.9297 529.759 47.2876L528.327 46.7763C528.582 46.1797 528.923 45.7152 529.349 45.3828C529.78 45.0461 530.249 44.8118 530.756 44.6797C531.267 44.5433 531.77 44.4751 532.264 44.4751C532.58 44.4751 532.942 44.5135 533.351 44.5902C533.764 44.6626 534.163 44.8139 534.546 45.044C534.934 45.2741 535.256 45.6214 535.511 46.0859C535.767 46.5504 535.895 47.1726 535.895 47.9524V54.4211H534.386V53.0916H534.31C534.207 53.3047 534.037 53.5326 533.798 53.7755C533.56 54.0184 533.242 54.2251 532.846 54.3956C532.45 54.566 531.966 54.6513 531.395 54.6513ZM531.625 53.2961C532.222 53.2961 532.724 53.179 533.134 52.9446C533.547 52.7102 533.858 52.4076 534.067 52.0369C534.28 51.6662 534.386 51.2763 534.386 50.8672V49.4865C534.322 49.5632 534.182 49.6335 533.964 49.6974C533.751 49.7571 533.504 49.8103 533.223 49.8572C532.946 49.8998 532.675 49.9382 532.411 49.9723C532.151 50.0021 531.94 50.0277 531.778 50.049C531.386 50.1001 531.02 50.1832 530.679 50.2983C530.342 50.4091 530.07 50.5774 529.861 50.8032C529.656 51.0248 529.554 51.3274 529.554 51.7109C529.554 52.2351 529.748 52.6314 530.136 52.8998C530.528 53.164 531.024 53.2961 531.625 53.2961ZM539.268 58.103C539.013 58.103 538.785 58.0817 538.584 58.039C538.384 58.0007 538.246 57.9623 538.169 57.924L538.552 56.5944C538.919 56.6882 539.243 56.7223 539.524 56.6967C539.805 56.6711 540.055 56.5454 540.272 56.3196C540.493 56.098 540.696 55.7379 540.879 55.2393L541.16 54.4723L537.53 44.603H539.166L541.876 52.4268H541.979L544.689 44.603H546.325L542.157 55.853C541.97 56.3601 541.738 56.7798 541.461 57.1122C541.184 57.4488 540.862 57.6981 540.496 57.8601C540.133 58.022 539.724 58.103 539.268 58.103ZM551.953 54.6257C551.067 54.6257 550.289 54.4148 549.62 53.9929C548.955 53.571 548.436 52.9808 548.061 52.2223C547.69 51.4638 547.504 50.5774 547.504 49.5632C547.504 48.5405 547.69 47.6477 548.061 46.8849C548.436 46.1221 548.955 45.5298 549.62 45.1079C550.289 44.6861 551.067 44.4751 551.953 44.4751C552.84 44.4751 553.615 44.6861 554.28 45.1079C554.949 45.5298 555.469 46.1221 555.84 46.8849C556.215 47.6477 556.402 48.5405 556.402 49.5632C556.402 50.5774 556.215 51.4638 555.84 52.2223C555.469 52.9808 554.949 53.571 554.28 53.9929C553.615 54.4148 552.84 54.6257 551.953 54.6257ZM551.953 53.2706C552.627 53.2706 553.181 53.098 553.615 52.7528C554.05 52.4076 554.372 51.9538 554.58 51.3913C554.789 50.8288 554.894 50.2194 554.894 49.5632C554.894 48.9069 554.789 48.2954 554.58 47.7287C554.372 47.1619 554.05 46.7038 553.615 46.3544C553.181 46.0049 552.627 45.8302 551.953 45.8302C551.28 45.8302 550.726 46.0049 550.291 46.3544C549.857 46.7038 549.535 47.1619 549.326 47.7287C549.117 48.2954 549.013 48.9069 549.013 49.5632C549.013 50.2194 549.117 50.8288 549.326 51.3913C549.535 51.9538 549.857 52.4076 550.291 52.7528C550.726 53.098 551.28 53.2706 551.953 53.2706ZM564.892 50.4069V44.603H566.401V54.4211H564.892V52.7592H564.79C564.56 53.2578 564.202 53.6818 563.716 54.0312C563.23 54.3764 562.617 54.549 561.875 54.549C561.262 54.549 560.716 54.4148 560.239 54.1463C559.762 53.8736 559.387 53.4645 559.114 52.919C558.841 52.3693 558.705 51.6768 558.705 50.8416V44.603H560.213V50.7393C560.213 51.4552 560.414 52.0263 560.814 52.4524C561.219 52.8785 561.735 53.0916 562.361 53.0916C562.736 53.0916 563.118 52.9957 563.505 52.804C563.897 52.6122 564.225 52.3182 564.49 51.9219C564.758 51.5255 564.892 51.0206 564.892 50.4069ZM573.434 44.603V45.8814H568.346V44.603H573.434ZM569.829 42.2507H571.337V51.6086C571.337 52.0348 571.399 52.3544 571.523 52.5674C571.65 52.7763 571.812 52.9169 572.008 52.9893C572.209 53.0575 572.42 53.0916 572.641 53.0916C572.807 53.0916 572.944 53.0831 573.05 53.066C573.157 53.0447 573.242 53.0277 573.306 53.0149L573.613 54.37C573.51 54.4084 573.368 54.4467 573.184 54.4851C573.001 54.5277 572.769 54.549 572.488 54.549C572.062 54.549 571.644 54.4574 571.235 54.2741C570.83 54.0909 570.493 53.8118 570.225 53.4368C569.961 53.0618 569.829 52.5888 569.829 52.0177V42.2507Z" fill="black"/>
<rect x="653" y="28" width="110" height="40" fill="#C4C4C4"/>
<path d="M673.585 54.4211V41.3302H678.009C679.036 41.3302 679.875 41.5156 680.527 41.8863C681.183 42.2528 681.669 42.7493 681.984 43.3757C682.3 44.0021 682.457 44.701 682.457 45.4723C682.457 46.2436 682.3 46.9446 681.984 47.5753C681.673 48.2059 681.192 48.7088 680.54 49.0838C679.888 49.4545 679.053 49.6399 678.034 49.6399H674.864V48.2336H677.983C678.686 48.2336 679.251 48.1122 679.677 47.8693C680.103 47.6264 680.412 47.2983 680.604 46.8849C680.8 46.4673 680.898 45.9964 680.898 45.4723C680.898 44.9481 680.8 44.4794 680.604 44.066C680.412 43.6527 680.101 43.3288 679.67 43.0944C679.24 42.8558 678.669 42.7365 677.957 42.7365H675.17V54.4211H673.585ZM687.696 54.6513C687.074 54.6513 686.509 54.5341 686.002 54.2997C685.495 54.0611 685.092 53.718 684.794 53.2706C684.495 52.8189 684.346 52.2734 684.346 51.6342C684.346 51.0717 684.457 50.6157 684.679 50.2663C684.9 49.9126 685.196 49.6356 685.567 49.4353C685.938 49.2351 686.347 49.0859 686.794 48.9879C687.246 48.8856 687.7 48.8047 688.156 48.745C688.752 48.6683 689.236 48.6108 689.607 48.5724C689.982 48.5298 690.255 48.4595 690.425 48.3615C690.6 48.2635 690.687 48.093 690.687 47.8501V47.799C690.687 47.1683 690.515 46.6782 690.169 46.3288C689.828 45.9794 689.311 45.8047 688.616 45.8047C687.896 45.8047 687.331 45.9623 686.922 46.2777C686.513 46.593 686.225 46.9297 686.059 47.2876L684.627 46.7763C684.883 46.1797 685.224 45.7152 685.65 45.3828C686.081 45.0461 686.549 44.8118 687.056 44.6797C687.568 44.5433 688.071 44.4751 688.565 44.4751C688.88 44.4751 689.243 44.5135 689.652 44.5902C690.065 44.6626 690.463 44.8139 690.847 45.044C691.235 45.2741 691.556 45.6214 691.812 46.0859C692.068 46.5504 692.196 47.1726 692.196 47.9524V54.4211H690.687V53.0916H690.61C690.508 53.3047 690.338 53.5326 690.099 53.7755C689.86 54.0184 689.543 54.2251 689.147 54.3956C688.75 54.566 688.267 54.6513 687.696 54.6513ZM687.926 53.2961C688.522 53.2961 689.025 53.179 689.434 52.9446C689.848 52.7102 690.159 52.4076 690.368 52.0369C690.581 51.6662 690.687 51.2763 690.687 50.8672V49.4865C690.623 49.5632 690.483 49.6335 690.265 49.6974C690.052 49.7571 689.805 49.8103 689.524 49.8572C689.247 49.8998 688.976 49.9382 688.712 49.9723C688.452 50.0021 688.241 50.0277 688.079 50.049C687.687 50.1001 687.321 50.1832 686.98 50.2983C686.643 50.4091 686.37 50.5774 686.162 50.8032C685.957 51.0248 685.855 51.3274 685.855 51.7109C685.855 52.2351 686.049 52.6314 686.436 52.8998C686.828 53.164 687.325 53.2961 687.926 53.2961ZM694.949 54.4211V44.603H696.458V54.4211H694.949ZM695.716 42.9666C695.422 42.9666 695.169 42.8665 694.955 42.6662C694.747 42.4659 694.642 42.2251 694.642 41.9439C694.642 41.6626 694.747 41.4219 694.955 41.2216C695.169 41.0213 695.422 40.9211 695.716 40.9211C696.01 40.9211 696.262 41.0213 696.47 41.2216C696.683 41.4219 696.79 41.6626 696.79 41.9439C696.79 42.2251 696.683 42.4659 696.47 42.6662C696.262 42.8665 696.01 42.9666 695.716 42.9666ZM700.729 48.5149V54.4211H699.221V44.603H700.678V46.1371H700.806C701.036 45.6385 701.385 45.2379 701.854 44.9353C702.323 44.6285 702.928 44.4751 703.669 44.4751C704.334 44.4751 704.916 44.6115 705.414 44.8842C705.913 45.1527 706.301 45.5618 706.578 46.1115C706.855 46.6569 706.993 47.3473 706.993 48.1825V54.4211H705.485V48.2848C705.485 47.5135 705.284 46.9126 704.884 46.4822C704.483 46.0476 703.934 45.8302 703.235 45.8302C702.753 45.8302 702.323 45.9346 701.944 46.1434C701.569 46.3523 701.272 46.6569 701.055 47.0575C700.838 47.4581 700.729 47.9439 700.729 48.5149ZM714.02 44.603V45.8814H708.932V44.603H714.02ZM710.415 42.2507H711.923V51.6086C711.923 52.0348 711.985 52.3544 712.108 52.5674C712.236 52.7763 712.398 52.9169 712.594 52.9893C712.795 53.0575 713.006 53.0916 713.227 53.0916C713.393 53.0916 713.53 53.0831 713.636 53.066C713.743 53.0447 713.828 53.0277 713.892 53.0149L714.199 54.37C714.096 54.4084 713.954 54.4467 713.77 54.4851C713.587 54.5277 713.355 54.549 713.074 54.549C712.648 54.549 712.23 54.4574 711.821 54.2741C711.416 54.0909 711.079 53.8118 710.811 53.4368C710.547 53.0618 710.415 52.5888 710.415 52.0177V42.2507ZM716.289 54.4211V44.603H717.797V54.4211H716.289ZM717.056 42.9666C716.762 42.9666 716.508 42.8665 716.295 42.6662C716.086 42.4659 715.982 42.2251 715.982 41.9439C715.982 41.6626 716.086 41.4219 716.295 41.2216C716.508 41.0213 716.762 40.9211 717.056 40.9211C717.35 40.9211 717.601 41.0213 717.81 41.2216C718.023 41.4219 718.13 41.6626 718.13 41.9439C718.13 42.2251 718.023 42.4659 717.81 42.6662C717.601 42.8665 717.35 42.9666 717.056 42.9666ZM722.069 48.5149V54.4211H720.56V44.603H722.018V46.1371H722.146C722.376 45.6385 722.725 45.2379 723.194 44.9353C723.663 44.6285 724.268 44.4751 725.009 44.4751C725.674 44.4751 726.256 44.6115 726.754 44.8842C727.253 45.1527 727.641 45.5618 727.918 46.1115C728.195 46.6569 728.333 47.3473 728.333 48.1825V54.4211H726.825V48.2848C726.825 47.5135 726.624 46.9126 726.224 46.4822C725.823 46.0476 725.273 45.8302 724.575 45.8302C724.093 45.8302 723.663 45.9346 723.283 46.1434C722.908 46.3523 722.612 46.6569 722.395 47.0575C722.178 47.4581 722.069 47.9439 722.069 48.5149ZM735.053 58.3075C734.324 58.3075 733.698 58.2138 733.173 58.0263C732.649 57.843 732.213 57.6001 731.863 57.2976C731.518 56.9993 731.243 56.6797 731.039 56.3388L732.24 55.495C732.377 55.674 732.549 55.8785 732.758 56.1086C732.967 56.343 733.252 56.5454 733.615 56.7159C733.981 56.8906 734.46 56.978 735.053 56.978C735.845 56.978 736.499 56.7862 737.015 56.4027C737.531 56.0192 737.789 55.4183 737.789 54.6001V52.6058H737.661C737.55 52.7848 737.392 53.0064 737.188 53.2706C736.987 53.5305 736.698 53.7628 736.318 53.9673C735.943 54.1676 735.436 54.2677 734.797 54.2677C734.004 54.2677 733.293 54.0802 732.662 53.7052C732.036 53.3302 731.539 52.7848 731.173 52.0689C730.811 51.353 730.629 50.4836 730.629 49.4609C730.629 48.4552 730.806 47.5795 731.16 46.8338C731.514 46.0838 732.006 45.5042 732.637 45.0951C733.267 44.6818 733.996 44.4751 734.823 44.4751C735.462 44.4751 735.969 44.5817 736.344 44.7947C736.723 45.0035 737.013 45.2422 737.213 45.5106C737.418 45.7748 737.575 45.9922 737.686 46.1626H737.84V44.603H739.297V54.7024C739.297 55.5461 739.105 56.2322 738.722 56.7606C738.343 57.2933 737.831 57.6832 737.188 57.9304C736.548 58.1818 735.837 58.3075 735.053 58.3075ZM735.002 52.9126C735.607 52.9126 736.118 52.7741 736.536 52.4971C736.953 52.2201 737.271 51.8217 737.488 51.3018C737.705 50.7819 737.814 50.1598 737.814 49.4353C737.814 48.728 737.708 48.1037 737.494 47.5625C737.281 47.0213 736.966 46.5973 736.548 46.2905C736.131 45.9836 735.615 45.8302 735.002 45.8302C734.362 45.8302 733.83 45.9922 733.404 46.316C732.982 46.6399 732.664 47.0746 732.451 47.62C732.242 48.1655 732.138 48.7706 732.138 49.4353C732.138 50.1172 732.244 50.7201 732.458 51.2443C732.675 51.7642 732.994 52.1733 733.416 52.4716C733.843 52.7656 734.371 52.9126 735.002 52.9126Z" fill="black"/>
<rect x="829" y="28" width="130.233" height="40" fill="#C4C4C4"/>
<path d="M852.119 45.4211H850.534C850.44 44.9652 850.276 44.5646 850.042 44.2194C849.812 43.8743 849.531 43.5845 849.198 43.3501C848.87 43.1115 848.506 42.9325 848.105 42.8132C847.705 42.6939 847.287 42.6342 846.852 42.6342C846.06 42.6342 845.342 42.8345 844.698 43.2351C844.059 43.6356 843.55 44.2258 843.17 45.0057C842.795 45.7855 842.608 46.7422 842.608 47.8757C842.608 49.0092 842.795 49.9659 843.17 50.7457C843.55 51.5255 844.059 52.1157 844.698 52.5163C845.342 52.9169 846.06 53.1172 846.852 53.1172C847.287 53.1172 847.705 53.0575 848.105 52.9382C848.506 52.8189 848.87 52.642 849.198 52.4076C849.531 52.169 849.812 51.8771 850.042 51.5319C850.276 51.1825 850.44 50.7819 850.534 50.3302H852.119C852 50.9993 851.783 51.598 851.467 52.1264C851.152 52.6548 850.76 53.1044 850.291 53.4751C849.822 53.8416 849.296 54.1207 848.712 54.3125C848.133 54.5042 847.513 54.6001 846.852 54.6001C845.736 54.6001 844.743 54.3274 843.874 53.7819C843.004 53.2365 842.32 52.4609 841.822 51.4552C841.323 50.4496 841.074 49.2564 841.074 47.8757C841.074 46.495 841.323 45.3018 841.822 44.2961C842.32 43.2905 843.004 42.5149 843.874 41.9694C844.743 41.424 845.736 41.1513 846.852 41.1513C847.513 41.1513 848.133 41.2471 848.712 41.4389C849.296 41.6307 849.822 41.9119 850.291 42.2826C850.76 42.6491 851.152 43.0966 851.467 43.625C851.783 44.1491 852 44.7478 852.119 45.4211ZM858.465 54.6257C857.579 54.6257 856.801 54.4148 856.132 53.9929C855.467 53.571 854.947 52.9808 854.572 52.2223C854.202 51.4638 854.016 50.5774 854.016 49.5632C854.016 48.5405 854.202 47.6477 854.572 46.8849C854.947 46.1221 855.467 45.5298 856.132 45.1079C856.801 44.6861 857.579 44.4751 858.465 44.4751C859.351 44.4751 860.127 44.6861 860.792 45.1079C861.461 45.5298 861.981 46.1221 862.351 46.8849C862.726 47.6477 862.914 48.5405 862.914 49.5632C862.914 50.5774 862.726 51.4638 862.351 52.2223C861.981 52.9808 861.461 53.571 860.792 53.9929C860.127 54.4148 859.351 54.6257 858.465 54.6257ZM858.465 53.2706C859.138 53.2706 859.692 53.098 860.127 52.7528C860.562 52.4076 860.883 51.9538 861.092 51.3913C861.301 50.8288 861.405 50.2194 861.405 49.5632C861.405 48.9069 861.301 48.2954 861.092 47.7287C860.883 47.1619 860.562 46.7038 860.127 46.3544C859.692 46.0049 859.138 45.8302 858.465 45.8302C857.792 45.8302 857.238 46.0049 856.803 46.3544C856.368 46.7038 856.047 47.1619 855.838 47.7287C855.629 48.2954 855.525 48.9069 855.525 49.5632C855.525 50.2194 855.629 50.8288 855.838 51.3913C856.047 51.9538 856.368 52.4076 856.803 52.7528C857.238 53.098 857.792 53.2706 858.465 53.2706ZM865.217 54.4211V44.603H866.674V46.1371H866.802C867.006 45.6129 867.337 45.2059 867.793 44.9162C868.249 44.6221 868.796 44.4751 869.435 44.4751C870.083 44.4751 870.622 44.6221 871.053 44.9162C871.487 45.2059 871.826 45.6129 872.069 46.1371H872.171C872.423 45.6299 872.8 45.2273 873.303 44.929C873.805 44.6264 874.408 44.4751 875.112 44.4751C875.989 44.4751 876.707 44.75 877.266 45.2997C877.824 45.8451 878.103 46.6953 878.103 47.8501V54.4211H876.594V47.8501C876.594 47.1257 876.396 46.6079 876 46.2969C875.604 45.9858 875.137 45.8302 874.6 45.8302C873.91 45.8302 873.375 46.039 872.996 46.4567C872.616 46.87 872.427 47.3942 872.427 48.0291V54.4211H870.893V47.6967C870.893 47.1385 870.712 46.6889 870.349 46.348C869.987 46.0028 869.521 45.8302 868.95 45.8302C868.558 45.8302 868.191 45.9346 867.85 46.1434C867.513 46.3523 867.241 46.642 867.032 47.0128C866.827 47.3792 866.725 47.8032 866.725 48.2848V54.4211H865.217ZM880.861 58.103V44.603H882.319V46.1626H882.498C882.608 45.9922 882.762 45.7748 882.958 45.5106C883.158 45.2422 883.444 45.0035 883.814 44.7947C884.189 44.5817 884.696 44.4751 885.336 44.4751C886.162 44.4751 886.891 44.6818 887.522 45.0951C888.152 45.5085 888.645 46.0944 888.998 46.853C889.352 47.6115 889.529 48.5064 889.529 49.5376C889.529 50.5774 889.352 51.4787 888.998 52.2415C888.645 53 888.154 53.588 887.528 54.0057C886.902 54.419 886.179 54.6257 885.361 54.6257C884.73 54.6257 884.225 54.5213 883.846 54.3125C883.467 54.0994 883.175 53.8586 882.971 53.5902C882.766 53.3174 882.608 53.0916 882.498 52.9126H882.37V58.103H880.861ZM882.344 49.5121C882.344 50.2535 882.453 50.9076 882.67 51.4744C882.887 52.0369 883.205 52.478 883.623 52.7976C884.04 53.1129 884.551 53.2706 885.157 53.2706C885.787 53.2706 886.314 53.1044 886.735 52.772C887.162 52.4353 887.481 51.9836 887.694 51.4169C887.912 50.8459 888.02 50.2109 888.02 49.5121C888.02 48.8217 887.914 48.1996 887.701 47.6456C887.492 47.0873 887.174 46.6463 886.748 46.3224C886.326 45.9943 885.796 45.8302 885.157 45.8302C884.543 45.8302 884.027 45.9858 883.61 46.2969C883.192 46.6037 882.877 47.0341 882.664 47.588C882.451 48.1378 882.344 48.7791 882.344 49.5121ZM895.819 54.6257C894.932 54.6257 894.154 54.4148 893.485 53.9929C892.821 53.571 892.301 52.9808 891.926 52.2223C891.555 51.4638 891.37 50.5774 891.37 49.5632C891.37 48.5405 891.555 47.6477 891.926 46.8849C892.301 46.1221 892.821 45.5298 893.485 45.1079C894.154 44.6861 894.932 44.4751 895.819 44.4751C896.705 44.4751 897.48 44.6861 898.145 45.1079C898.814 45.5298 899.334 46.1221 899.705 46.8849C900.08 47.6477 900.267 48.5405 900.267 49.5632C900.267 50.5774 900.08 51.4638 899.705 52.2223C899.334 52.9808 898.814 53.571 898.145 53.9929C897.48 54.4148 896.705 54.6257 895.819 54.6257ZM895.819 53.2706C896.492 53.2706 897.046 53.098 897.48 52.7528C897.915 52.4076 898.237 51.9538 898.446 51.3913C898.654 50.8288 898.759 50.2194 898.759 49.5632C898.759 48.9069 898.654 48.2954 898.446 47.7287C898.237 47.1619 897.915 46.7038 897.48 46.3544C897.046 46.0049 896.492 45.8302 895.819 45.8302C895.145 45.8302 894.591 46.0049 894.157 46.3544C893.722 46.7038 893.4 47.1619 893.191 47.7287C892.983 48.2954 892.878 48.9069 892.878 49.5632C892.878 50.2194 892.983 50.8288 893.191 51.3913C893.4 51.9538 893.722 52.4076 894.157 52.7528C894.591 53.098 895.145 53.2706 895.819 53.2706ZM909.525 46.8018L908.17 47.1853C908.084 46.9595 907.959 46.74 907.792 46.527C907.631 46.3096 907.409 46.1307 907.128 45.99C906.846 45.8494 906.486 45.7791 906.047 45.7791C905.447 45.7791 904.946 45.9176 904.545 46.1946C904.149 46.4673 903.951 46.8146 903.951 47.2365C903.951 47.6115 904.087 47.9076 904.36 48.125C904.633 48.3423 905.059 48.5234 905.638 48.6683L907.096 49.0263C907.974 49.2393 908.628 49.5653 909.058 50.0042C909.488 50.4389 909.704 50.9993 909.704 51.6853C909.704 52.2478 909.542 52.7507 909.218 53.1939C908.898 53.6371 908.451 53.9865 907.876 54.2422C907.3 54.4978 906.631 54.6257 905.868 54.6257C904.867 54.6257 904.038 54.4084 903.382 53.9737C902.726 53.539 902.31 52.9041 902.135 52.0689L903.567 51.7109C903.704 52.2393 903.961 52.6356 904.341 52.8998C904.724 53.164 905.225 53.2961 905.843 53.2961C906.546 53.2961 907.104 53.147 907.518 52.8487C907.935 52.5461 908.144 52.1839 908.144 51.7621C908.144 51.4211 908.025 51.1356 907.786 50.9055C907.547 50.6711 907.181 50.4964 906.687 50.3814L905.05 49.9978C904.151 49.7848 903.491 49.4545 903.069 49.0071C902.651 48.5554 902.442 47.9907 902.442 47.3132C902.442 46.7592 902.598 46.2692 902.909 45.843C903.224 45.4169 903.653 45.0824 904.194 44.8395C904.739 44.5966 905.357 44.4751 906.047 44.4751C907.019 44.4751 907.782 44.6882 908.336 45.1143C908.894 45.5405 909.29 46.103 909.525 46.8018ZM911.974 54.4211V44.603H913.483V54.4211H911.974ZM912.741 42.9666C912.447 42.9666 912.194 42.8665 911.981 42.6662C911.772 42.4659 911.668 42.2251 911.668 41.9439C911.668 41.6626 911.772 41.4219 911.981 41.2216C912.194 41.0213 912.447 40.9211 912.741 40.9211C913.036 40.9211 913.287 41.0213 913.496 41.2216C913.709 41.4219 913.815 41.6626 913.815 41.9439C913.815 42.2251 913.709 42.4659 913.496 42.6662C913.287 42.8665 913.036 42.9666 912.741 42.9666ZM920.516 44.603V45.8814H915.428V44.603H920.516ZM916.911 42.2507H918.419V51.6086C918.419 52.0348 918.481 52.3544 918.605 52.5674C918.732 52.7763 918.894 52.9169 919.09 52.9893C919.291 53.0575 919.502 53.0916 919.723 53.0916C919.889 53.0916 920.026 53.0831 920.132 53.066C920.239 53.0447 920.324 53.0277 920.388 53.0149L920.695 54.37C920.593 54.4084 920.45 54.4467 920.267 54.4851C920.083 54.5277 919.851 54.549 919.57 54.549C919.144 54.549 918.726 54.4574 918.317 54.2741C917.912 54.0909 917.575 53.8118 917.307 53.4368C917.043 53.0618 916.911 52.5888 916.911 52.0177V42.2507ZM922.785 54.4211V44.603H924.294V54.4211H922.785ZM923.552 42.9666C923.258 42.9666 923.004 42.8665 922.791 42.6662C922.583 42.4659 922.478 42.2251 922.478 41.9439C922.478 41.6626 922.583 41.4219 922.791 41.2216C923.004 41.0213 923.258 40.9211 923.552 40.9211C923.846 40.9211 924.097 41.0213 924.306 41.2216C924.519 41.4219 924.626 41.6626 924.626 41.9439C924.626 42.2251 924.519 42.4659 924.306 42.6662C924.097 42.8665 923.846 42.9666 923.552 42.9666ZM931.045 54.6257C930.159 54.6257 929.381 54.4148 928.712 53.9929C928.047 53.571 927.527 52.9808 927.152 52.2223C926.782 51.4638 926.596 50.5774 926.596 49.5632C926.596 48.5405 926.782 47.6477 927.152 46.8849C927.527 46.1221 928.047 45.5298 928.712 45.1079C929.381 44.6861 930.159 44.4751 931.045 44.4751C931.931 44.4751 932.707 44.6861 933.372 45.1079C934.041 45.5298 934.561 46.1221 934.931 46.8849C935.306 47.6477 935.494 48.5405 935.494 49.5632C935.494 50.5774 935.306 51.4638 934.931 52.2223C934.561 52.9808 934.041 53.571 933.372 53.9929C932.707 54.4148 931.931 54.6257 931.045 54.6257ZM931.045 53.2706C931.718 53.2706 932.272 53.098 932.707 52.7528C933.142 52.4076 933.463 51.9538 933.672 51.3913C933.881 50.8288 933.985 50.2194 933.985 49.5632C933.985 48.9069 933.881 48.2954 933.672 47.7287C933.463 47.1619 933.142 46.7038 932.707 46.3544C932.272 46.0049 931.718 45.8302 931.045 45.8302C930.372 45.8302 929.818 46.0049 929.383 46.3544C928.949 46.7038 928.627 47.1619 928.418 47.7287C928.209 48.2954 928.105 48.9069 928.105 49.5632C928.105 50.2194 928.209 50.8288 928.418 51.3913C928.627 51.9538 928.949 52.4076 929.383 52.7528C929.818 53.098 930.372 53.2706 931.045 53.2706ZM939.305 48.5149V54.4211H937.797V44.603H939.254V46.1371H939.382C939.612 45.6385 939.961 45.2379 940.43 44.9353C940.899 44.6285 941.504 44.4751 942.246 44.4751C942.91 44.4751 943.492 44.6115 943.991 44.8842C944.489 45.1527 944.877 45.5618 945.154 46.1115C945.431 46.6569 945.569 47.3473 945.569 48.1825V54.4211H944.061V48.2848C944.061 47.5135 943.861 46.9126 943.46 46.4822C943.059 46.0476 942.51 45.8302 941.811 45.8302C941.329 45.8302 940.899 45.9346 940.52 46.1434C940.145 46.3523 939.849 46.6569 939.631 47.0575C939.414 47.4581 939.305 47.9439 939.305 48.5149Z" fill="black"/>
<path d="M534.322 11.4545C534.322 9.84375 534.531 8.36293 534.948 7.01207C535.37 5.65696 535.971 4.41051 536.751 3.27273H538.08C537.773 3.6946 537.486 4.21449 537.217 4.83239C536.953 5.44602 536.721 6.12145 536.521 6.85866C536.32 7.59162 536.163 8.35014 536.048 9.13423C535.937 9.91832 535.881 10.6918 535.881 11.4545C535.881 12.4688 535.979 13.4979 536.175 14.5419C536.371 15.5859 536.636 16.5554 536.968 17.4503C537.3 18.3452 537.671 19.0739 538.08 19.6364H536.751C535.971 18.4986 535.37 17.2543 534.948 15.9034C534.531 14.5483 534.322 13.0653 534.322 11.4545ZM541.774 15.3153V14.0114L547.527 4.90909H548.473V6.92898H547.834L543.487 13.8068V13.9091H551.234V15.3153H541.774ZM547.936 18V14.919V14.3118V4.90909H549.444V18H547.936ZM558.677 11.4545C558.677 13.0653 558.466 14.5483 558.044 15.9034C557.626 17.2543 557.028 18.4986 556.248 19.6364H554.918C555.225 19.2145 555.51 18.6946 555.775 18.0767C556.043 17.4631 556.278 16.7898 556.478 16.0568C556.678 15.3196 556.834 14.5589 556.944 13.7749C557.059 12.9865 557.117 12.2131 557.117 11.4545C557.117 10.4403 557.019 9.41122 556.823 8.36719C556.627 7.32315 556.363 6.35369 556.03 5.45881C555.698 4.56392 555.327 3.83523 554.918 3.27273H556.248C557.028 4.41051 557.626 5.65696 558.044 7.01207C558.466 8.36293 558.677 9.84375 558.677 11.4545Z" fill="black"/>
<path d="M696.621 11.4545C696.621 9.84375 696.829 8.36293 697.247 7.01207C697.669 5.65696 698.27 4.41051 699.05 3.27273H700.379C700.072 3.6946 699.785 4.21449 699.516 4.83239C699.252 5.44602 699.02 6.12145 698.819 6.85866C698.619 7.59162 698.461 8.35014 698.346 9.13423C698.236 9.91832 698.18 10.6918 698.18 11.4545C698.18 12.4688 698.278 13.4979 698.474 14.5419C698.67 15.5859 698.934 16.5554 699.267 17.4503C699.599 18.3452 699.97 19.0739 700.379 19.6364H699.05C698.27 18.4986 697.669 17.2543 697.247 15.9034C696.829 14.5483 696.621 13.0653 696.621 11.4545ZM708.47 18.179C707.72 18.179 707.045 18.0298 706.444 17.7315C705.843 17.4332 705.362 17.0241 705 16.5043C704.637 15.9844 704.439 15.392 704.405 14.7273H705.939C705.999 15.3196 706.267 15.8097 706.745 16.1974C707.226 16.581 707.801 16.7727 708.47 16.7727C709.007 16.7727 709.485 16.647 709.902 16.3956C710.324 16.1442 710.654 15.799 710.893 15.3601C711.136 14.9169 711.257 14.4162 711.257 13.858C711.257 13.2869 711.132 12.7777 710.88 12.3303C710.633 11.8786 710.292 11.5227 709.858 11.2628C709.423 11.0028 708.926 10.8707 708.368 10.8665C707.968 10.8622 707.556 10.924 707.134 11.0518C706.713 11.1754 706.365 11.3352 706.093 11.5312L704.61 11.3523L705.402 4.90909H712.203V6.31534H706.732L706.272 10.1761H706.348C706.617 9.96307 706.953 9.78622 707.358 9.6456C707.763 9.50497 708.185 9.43466 708.624 9.43466C709.425 9.43466 710.139 9.62642 710.765 10.0099C711.396 10.3892 711.89 10.9091 712.248 11.5696C712.61 12.2301 712.791 12.9844 712.791 13.8324C712.791 14.6676 712.604 15.4134 712.229 16.0696C711.858 16.7216 711.347 17.2372 710.695 17.6165C710.043 17.9915 709.301 18.179 708.47 18.179ZM720.378 11.4545C720.378 13.0653 720.167 14.5483 719.745 15.9034C719.327 17.2543 718.729 18.4986 717.949 19.6364H716.619C716.926 19.2145 717.212 18.6946 717.476 18.0767C717.744 17.4631 717.979 16.7898 718.179 16.0568C718.379 15.3196 718.535 14.5589 718.646 13.7749C718.761 12.9865 718.818 12.2131 718.818 11.4545C718.818 10.4403 718.72 9.41122 718.524 8.36719C718.328 7.32315 718.064 6.35369 717.732 5.45881C717.399 4.56392 717.028 3.83523 716.619 3.27273H717.949C718.729 4.41051 719.327 5.65696 719.745 7.01207C720.167 8.36293 720.378 9.84375 720.378 11.4545Z" fill="black"/>
<path d="M882.48 11.4545C882.48 9.84375 882.689 8.36293 883.106 7.01207C883.528 5.65696 884.129 4.41051 884.909 3.27273H886.238C885.932 3.6946 885.644 4.21449 885.376 4.83239C885.111 5.44602 884.879 6.12145 884.679 6.85866C884.478 7.59162 884.321 8.35014 884.206 9.13423C884.095 9.91832 884.04 10.6918 884.04 11.4545C884.04 12.4688 884.138 13.4979 884.334 14.5419C884.53 15.5859 884.794 16.5554 885.126 17.4503C885.459 18.3452 885.829 19.0739 886.238 19.6364H884.909C884.129 18.4986 883.528 17.2543 883.106 15.9034C882.689 14.5483 882.48 13.0653 882.48 11.4545ZM894.585 18.179C894.049 18.1705 893.512 18.0682 892.975 17.8722C892.438 17.6761 891.948 17.3459 891.505 16.8814C891.061 16.4126 890.706 15.7798 890.437 14.983C890.169 14.1818 890.034 13.1761 890.034 11.9659C890.034 10.8068 890.143 9.77983 890.36 8.88494C890.578 7.98579 890.893 7.2294 891.306 6.61577C891.72 5.99787 892.218 5.52912 892.802 5.20952C893.39 4.88991 894.053 4.73011 894.79 4.73011C895.523 4.73011 896.175 4.87713 896.746 5.17116C897.321 5.46094 897.79 5.86577 898.152 6.38565C898.514 6.90554 898.749 7.50426 898.855 8.18182H897.296C897.151 7.59375 896.87 7.10582 896.452 6.71804C896.034 6.33026 895.48 6.13636 894.79 6.13636C893.776 6.13636 892.977 6.57741 892.393 7.45952C891.813 8.34162 891.522 9.57955 891.517 11.1733H891.62C891.858 10.8111 892.142 10.5021 892.47 10.2464C892.802 9.98651 893.169 9.78622 893.569 9.6456C893.97 9.50497 894.394 9.43466 894.841 9.43466C895.591 9.43466 896.277 9.62216 896.899 9.99716C897.522 10.3679 898.02 10.8814 898.395 11.5376C898.77 12.1896 898.958 12.9375 898.958 13.7812C898.958 14.5909 898.777 15.3324 898.414 16.0057C898.052 16.6747 897.543 17.2074 896.887 17.6037C896.235 17.9957 895.468 18.1875 894.585 18.179ZM894.585 16.7727C895.122 16.7727 895.604 16.6385 896.03 16.37C896.46 16.1016 896.799 15.7415 897.046 15.2898C897.298 14.8381 897.424 14.3352 897.424 13.7812C897.424 13.2401 897.302 12.7479 897.059 12.3047C896.821 11.8572 896.49 11.5014 896.068 11.2372C895.651 10.973 895.174 10.8409 894.637 10.8409C894.232 10.8409 893.855 10.9219 893.505 11.0838C893.156 11.2415 892.849 11.4588 892.585 11.7358C892.325 12.0128 892.12 12.3303 891.971 12.6882C891.822 13.0419 891.747 13.4148 891.747 13.8068C891.747 14.3267 891.869 14.8125 892.112 15.2642C892.359 15.7159 892.696 16.0803 893.122 16.3572C893.552 16.6342 894.04 16.7727 894.585 16.7727ZM906.518 11.4545C906.518 13.0653 906.308 14.5483 905.886 15.9034C905.468 17.2543 904.869 18.4986 904.09 19.6364H902.76C903.067 19.2145 903.352 18.6946 903.616 18.0767C903.885 17.4631 904.119 16.7898 904.32 16.0568C904.52 15.3196 904.675 14.5589 904.786 13.7749C904.901 12.9865 904.959 12.2131 904.959 11.4545C904.959 10.4403 904.861 9.41122 904.665 8.36719C904.469 7.32315 904.205 6.35369 903.872 5.45881C903.54 4.56392 903.169 3.83523 902.76 3.27273H904.09C904.869 4.41051 905.468 5.65696 905.886 7.01207C906.308 8.36293 906.518 9.84375 906.518 11.4545Z" fill="black"/>
</svg>
